<svg xmlns="http://www.w3.org/2000/svg" xmlns:xlink="http://www.w3.org/1999/xlink" width="210" zoomAndPan="magnify" viewBox="0 0 157.5 60" height="80" preserveAspectRatio="xMidYMid meet" version="1.0"><defs><g/><clipPath id="6aba3c35a9"><path d="M 2.578125 3.296875 L 88.828125 3.296875 L 88.828125 24.296875 L 2.578125 24.296875 Z M 2.578125 3.296875 " clip-rule="nonzero"/></clipPath><clipPath id="23bd16656a"><path d="M 2.578125 3.296875 L 88 3.296875 L 88 24.296875 L 2.578125 24.296875 Z M 2.578125 3.296875 " clip-rule="nonzero"/></clipPath><clipPath id="fc773cf03c"><path d="M 87 19 L 88.828125 19 L 88.828125 22 L 87 22 Z M 87 19 " clip-rule="nonzero"/></clipPath><clipPath id="41a01184fe"><path d="M 44 3.296875 L 49 3.296875 L 49 5 L 44 5 Z M 44 3.296875 " clip-rule="nonzero"/></clipPath></defs><g fill="#7c9ae0" fill-opacity="1"><g transform="translate(2.988169, 45.19539)"><g><path d="M 13.53125 -16.238281 L 15.851562 -16.238281 L 15.851562 -18.554688 L 13.53125 -18.554688 Z M 0 0 L 2.320312 0 L 2.320312 -2.320312 L 0 -2.320312 Z M 0 -2.707031 L 2.320312 -2.707031 L 2.320312 -5.027344 L 0 -5.027344 Z M 2.707031 0 L 5.027344 0 L 5.027344 -2.320312 L 2.707031 -2.320312 Z M 2.707031 -2.707031 L 5.027344 -2.707031 L 5.027344 -5.027344 L 2.707031 -5.027344 Z M 5.414062 0 L 7.730469 0 L 7.730469 -2.320312 L 5.414062 -2.320312 Z M 2.707031 -5.414062 L 5.027344 -5.414062 L 5.027344 -7.730469 L 2.707031 -7.730469 Z M 8.117188 0 L 10.4375 0 L 10.4375 -2.320312 L 8.117188 -2.320312 Z M 5.414062 -5.414062 L 7.730469 -5.414062 L 7.730469 -7.730469 L 5.414062 -7.730469 Z M 10.824219 0 L 13.144531 0 L 13.144531 -2.320312 L 10.824219 -2.320312 Z M 0 -13.53125 L 2.320312 -13.53125 L 2.320312 -15.851562 L 0 -15.851562 Z M 5.414062 -8.117188 L 7.730469 -8.117188 L 7.730469 -10.4375 L 5.414062 -10.4375 Z M 10.824219 -2.707031 L 13.144531 -2.707031 L 13.144531 -5.027344 L 10.824219 -5.027344 Z M 13.53125 0 L 15.851562 0 L 15.851562 -2.320312 L 13.53125 -2.320312 Z M 0 -16.238281 L 2.320312 -16.238281 L 2.320312 -18.554688 L 0 -18.554688 Z M 2.707031 -13.53125 L 5.027344 -13.53125 L 5.027344 -15.851562 L 2.707031 -15.851562 Z M 8.117188 -8.117188 L 10.4375 -8.117188 L 10.4375 -10.4375 L 8.117188 -10.4375 Z M 13.53125 -2.707031 L 15.851562 -2.707031 L 15.851562 -5.027344 L 13.53125 -5.027344 Z M 2.707031 -16.238281 L 5.027344 -16.238281 L 5.027344 -18.554688 L 2.707031 -18.554688 Z M 8.117188 -10.824219 L 10.4375 -10.824219 L 10.4375 -13.144531 L 8.117188 -13.144531 Z M 5.414062 -16.238281 L 7.730469 -16.238281 L 7.730469 -18.554688 L 5.414062 -18.554688 Z M 10.824219 -10.824219 L 13.144531 -10.824219 L 13.144531 -13.144531 L 10.824219 -13.144531 Z M 8.117188 -16.238281 L 10.4375 -16.238281 L 10.4375 -18.554688 L 8.117188 -18.554688 Z M 10.824219 -13.53125 L 13.144531 -13.53125 L 13.144531 -15.851562 L 10.824219 -15.851562 Z M 10.824219 -16.238281 L 13.144531 -16.238281 L 13.144531 -18.554688 L 10.824219 -18.554688 Z M 13.53125 -13.53125 L 15.851562 -13.53125 L 15.851562 -15.851562 L 13.53125 -15.851562 Z M 13.53125 -13.53125 "/></g></g></g><g fill="#7c9ae0" fill-opacity="1"><g transform="translate(22.315446, 45.19539)"><g><path d="M 13.53125 -16.238281 L 15.851562 -16.238281 L 15.851562 -18.554688 L 13.53125 -18.554688 Z M 0 -2.707031 L 2.320312 -2.707031 L 2.320312 -5.027344 L 0 -5.027344 Z M 2.707031 0 L 5.027344 0 L 5.027344 -2.320312 L 2.707031 -2.320312 Z M 0 -5.414062 L 2.320312 -5.414062 L 2.320312 -7.730469 L 0 -7.730469 Z M 2.707031 -2.707031 L 5.027344 -2.707031 L 5.027344 -5.027344 L 2.707031 -5.027344 Z M 5.414062 0 L 7.730469 0 L 7.730469 -2.320312 L 5.414062 -2.320312 Z M 0 -8.117188 L 2.320312 -8.117188 L 2.320312 -10.4375 L 0 -10.4375 Z M 2.707031 -5.414062 L 5.027344 -5.414062 L 5.027344 -7.730469 L 2.707031 -7.730469 Z M 8.117188 0 L 10.4375 0 L 10.4375 -2.320312 L 8.117188 -2.320312 Z M 0 -10.824219 L 2.320312 -10.824219 L 2.320312 -13.144531 L 0 -13.144531 Z M 2.707031 -8.117188 L 5.027344 -8.117188 L 5.027344 -10.4375 L 2.707031 -10.4375 Z M 10.824219 0 L 13.144531 0 L 13.144531 -2.320312 L 10.824219 -2.320312 Z M 0 -13.53125 L 2.320312 -13.53125 L 2.320312 -15.851562 L 0 -15.851562 Z M 2.707031 -10.824219 L 5.027344 -10.824219 L 5.027344 -13.144531 L 2.707031 -13.144531 Z M 10.824219 -2.707031 L 13.144531 -2.707031 L 13.144531 -5.027344 L 10.824219 -5.027344 Z M 0 -16.238281 L 2.320312 -16.238281 L 2.320312 -18.554688 L 0 -18.554688 Z M 2.707031 -13.53125 L 5.027344 -13.53125 L 5.027344 -15.851562 L 2.707031 -15.851562 Z M 10.824219 -5.414062 L 13.144531 -5.414062 L 13.144531 -7.730469 L 10.824219 -7.730469 Z M 13.53125 -2.707031 L 15.851562 -2.707031 L 15.851562 -5.027344 L 13.53125 -5.027344 Z M 2.707031 -16.238281 L 5.027344 -16.238281 L 5.027344 -18.554688 L 2.707031 -18.554688 Z M 10.824219 -8.117188 L 13.144531 -8.117188 L 13.144531 -10.4375 L 10.824219 -10.4375 Z M 13.53125 -5.414062 L 15.851562 -5.414062 L 15.851562 -7.730469 L 13.53125 -7.730469 Z M 10.824219 -10.824219 L 13.144531 -10.824219 L 13.144531 -13.144531 L 10.824219 -13.144531 Z M 13.53125 -8.117188 L 15.851562 -8.117188 L 15.851562 -10.4375 L 13.53125 -10.4375 Z M 10.824219 -13.53125 L 13.144531 -13.53125 L 13.144531 -15.851562 L 10.824219 -15.851562 Z M 13.53125 -10.824219 L 15.851562 -10.824219 L 15.851562 -13.144531 L 13.53125 -13.144531 Z M 10.824219 -16.238281 L 13.144531 -16.238281 L 13.144531 -18.554688 L 10.824219 -18.554688 Z M 13.53125 -13.53125 L 15.851562 -13.53125 L 15.851562 -15.851562 L 13.53125 -15.851562 Z M 13.53125 -13.53125 "/></g></g></g><g fill="#7c9ae0" fill-opacity="1"><g transform="translate(41.642724, 45.19539)"><g><path d="M 13.53125 -13.53125 L 15.851562 -13.53125 L 15.851562 -15.851562 L 13.53125 -15.851562 Z M 0 -2.707031 L 2.320312 -2.707031 L 2.320312 -5.027344 L 0 -5.027344 Z M 2.707031 0 L 5.027344 0 L 5.027344 -2.320312 L 2.707031 -2.320312 Z M 2.707031 -2.707031 L 5.027344 -2.707031 L 5.027344 -5.027344 L 2.707031 -5.027344 Z M 5.414062 0 L 7.730469 0 L 7.730469 -2.320312 L 5.414062 -2.320312 Z M 0 -8.117188 L 2.320312 -8.117188 L 2.320312 -10.4375 L 0 -10.4375 Z M 8.117188 0 L 10.4375 0 L 10.4375 -2.320312 L 8.117188 -2.320312 Z M 0 -10.824219 L 2.320312 -10.824219 L 2.320312 -13.144531 L 0 -13.144531 Z M 2.707031 -8.117188 L 5.027344 -8.117188 L 5.027344 -10.4375 L 2.707031 -10.4375 Z M 10.824219 0 L 13.144531 0 L 13.144531 -2.320312 L 10.824219 -2.320312 Z M 0 -13.53125 L 2.320312 -13.53125 L 2.320312 -15.851562 L 0 -15.851562 Z M 2.707031 -10.824219 L 5.027344 -10.824219 L 5.027344 -13.144531 L 2.707031 -13.144531 Z M 5.414062 -8.117188 L 7.730469 -8.117188 L 7.730469 -10.4375 L 5.414062 -10.4375 Z M 10.824219 -2.707031 L 13.144531 -2.707031 L 13.144531 -5.027344 L 10.824219 -5.027344 Z M 2.707031 -13.53125 L 5.027344 -13.53125 L 5.027344 -15.851562 L 2.707031 -15.851562 Z M 8.117188 -8.117188 L 10.4375 -8.117188 L 10.4375 -10.4375 L 8.117188 -10.4375 Z M 10.824219 -5.414062 L 13.144531 -5.414062 L 13.144531 -7.730469 L 10.824219 -7.730469 Z M 13.53125 -2.707031 L 15.851562 -2.707031 L 15.851562 -5.027344 L 13.53125 -5.027344 Z M 2.707031 -16.238281 L 5.027344 -16.238281 L 5.027344 -18.554688 L 2.707031 -18.554688 Z M 10.824219 -8.117188 L 13.144531 -8.117188 L 13.144531 -10.4375 L 10.824219 -10.4375 Z M 13.53125 -5.414062 L 15.851562 -5.414062 L 15.851562 -7.730469 L 13.53125 -7.730469 Z M 5.414062 -16.238281 L 7.730469 -16.238281 L 7.730469 -18.554688 L 5.414062 -18.554688 Z M 13.53125 -8.117188 L 15.851562 -8.117188 L 15.851562 -10.4375 L 13.53125 -10.4375 Z M 8.117188 -16.238281 L 10.4375 -16.238281 L 10.4375 -18.554688 L 8.117188 -18.554688 Z M 10.824219 -13.53125 L 13.144531 -13.53125 L 13.144531 -15.851562 L 10.824219 -15.851562 Z M 10.824219 -16.238281 L 13.144531 -16.238281 L 13.144531 -18.554688 L 10.824219 -18.554688 Z M 10.824219 -16.238281 "/></g></g></g><g fill="#7c9ae0" fill-opacity="1"><g transform="translate(60.97, 45.19539)"><g><path d="M 13.53125 -16.238281 L 15.851562 -16.238281 L 15.851562 -18.554688 L 13.53125 -18.554688 Z M 0 0 L 2.320312 0 L 2.320312 -2.320312 L 0 -2.320312 Z M 0 -2.707031 L 2.320312 -2.707031 L 2.320312 -5.027344 L 0 -5.027344 Z M 2.707031 0 L 5.027344 0 L 5.027344 -2.320312 L 2.707031 -2.320312 Z M 0 -5.414062 L 2.320312 -5.414062 L 2.320312 -7.730469 L 0 -7.730469 Z M 2.707031 -2.707031 L 5.027344 -2.707031 L 5.027344 -5.027344 L 2.707031 -5.027344 Z M 0 -8.117188 L 2.320312 -8.117188 L 2.320312 -10.4375 L 0 -10.4375 Z M 2.707031 -5.414062 L 5.027344 -5.414062 L 5.027344 -7.730469 L 2.707031 -7.730469 Z M 0 -10.824219 L 2.320312 -10.824219 L 2.320312 -13.144531 L 0 -13.144531 Z M 2.707031 -8.117188 L 5.027344 -8.117188 L 5.027344 -10.4375 L 2.707031 -10.4375 Z M 10.824219 0 L 13.144531 0 L 13.144531 -2.320312 L 10.824219 -2.320312 Z M 0 -13.53125 L 2.320312 -13.53125 L 2.320312 -15.851562 L 0 -15.851562 Z M 2.707031 -10.824219 L 5.027344 -10.824219 L 5.027344 -13.144531 L 2.707031 -13.144531 Z M 5.414062 -8.117188 L 7.730469 -8.117188 L 7.730469 -10.4375 L 5.414062 -10.4375 Z M 10.824219 -2.707031 L 13.144531 -2.707031 L 13.144531 -5.027344 L 10.824219 -5.027344 Z M 13.53125 0 L 15.851562 0 L 15.851562 -2.320312 L 13.53125 -2.320312 Z M 0 -16.238281 L 2.320312 -16.238281 L 2.320312 -18.554688 L 0 -18.554688 Z M 2.707031 -13.53125 L 5.027344 -13.53125 L 5.027344 -15.851562 L 2.707031 -15.851562 Z M 8.117188 -8.117188 L 10.4375 -8.117188 L 10.4375 -10.4375 L 8.117188 -10.4375 Z M 10.824219 -5.414062 L 13.144531 -5.414062 L 13.144531 -7.730469 L 10.824219 -7.730469 Z M 13.53125 -2.707031 L 15.851562 -2.707031 L 15.851562 -5.027344 L 13.53125 -5.027344 Z M 2.707031 -16.238281 L 5.027344 -16.238281 L 5.027344 -18.554688 L 2.707031 -18.554688 Z M 10.824219 -8.117188 L 13.144531 -8.117188 L 13.144531 -10.4375 L 10.824219 -10.4375 Z M 13.53125 -5.414062 L 15.851562 -5.414062 L 15.851562 -7.730469 L 13.53125 -7.730469 Z M 10.824219 -10.824219 L 13.144531 -10.824219 L 13.144531 -13.144531 L 10.824219 -13.144531 Z M 13.53125 -8.117188 L 15.851562 -8.117188 L 15.851562 -10.4375 L 13.53125 -10.4375 Z M 10.824219 -13.53125 L 13.144531 -13.53125 L 13.144531 -15.851562 L 10.824219 -15.851562 Z M 13.53125 -10.824219 L 15.851562 -10.824219 L 15.851562 -13.144531 L 13.53125 -13.144531 Z M 10.824219 -16.238281 L 13.144531 -16.238281 L 13.144531 -18.554688 L 10.824219 -18.554688 Z M 13.53125 -13.53125 L 15.851562 -13.53125 L 15.851562 -15.851562 L 13.53125 -15.851562 Z M 13.53125 -13.53125 "/></g></g></g><g fill="#7c9ae0" fill-opacity="1"><g transform="translate(80.297279, 45.19539)"><g><path d="M 8.117188 -16.238281 L 10.4375 -16.238281 L 10.4375 -18.554688 L 8.117188 -18.554688 Z M 0 0 L 2.320312 0 L 2.320312 -2.320312 L 0 -2.320312 Z M 2.707031 0 L 5.027344 0 L 5.027344 -2.320312 L 2.707031 -2.320312 Z M 2.707031 -2.707031 L 5.027344 -2.707031 L 5.027344 -5.027344 L 2.707031 -5.027344 Z M 5.414062 0 L 7.730469 0 L 7.730469 -2.320312 L 5.414062 -2.320312 Z M 2.707031 -5.414062 L 5.027344 -5.414062 L 5.027344 -7.730469 L 2.707031 -7.730469 Z M 5.414062 -2.707031 L 7.730469 -2.707031 L 7.730469 -5.027344 L 5.414062 -5.027344 Z M 8.117188 0 L 10.4375 0 L 10.4375 -2.320312 L 8.117188 -2.320312 Z M 2.707031 -8.117188 L 5.027344 -8.117188 L 5.027344 -10.4375 L 2.707031 -10.4375 Z M 5.414062 -5.414062 L 7.730469 -5.414062 L 7.730469 -7.730469 L 5.414062 -7.730469 Z M 2.707031 -10.824219 L 5.027344 -10.824219 L 5.027344 -13.144531 L 2.707031 -13.144531 Z M 5.414062 -8.117188 L 7.730469 -8.117188 L 7.730469 -10.4375 L 5.414062 -10.4375 Z M 0 -16.238281 L 2.320312 -16.238281 L 2.320312 -18.554688 L 0 -18.554688 Z M 2.707031 -13.53125 L 5.027344 -13.53125 L 5.027344 -15.851562 L 2.707031 -15.851562 Z M 5.414062 -10.824219 L 7.730469 -10.824219 L 7.730469 -13.144531 L 5.414062 -13.144531 Z M 2.707031 -16.238281 L 5.027344 -16.238281 L 5.027344 -18.554688 L 2.707031 -18.554688 Z M 5.414062 -13.53125 L 7.730469 -13.53125 L 7.730469 -15.851562 L 5.414062 -15.851562 Z M 5.414062 -16.238281 L 7.730469 -16.238281 L 7.730469 -18.554688 L 5.414062 -18.554688 Z M 5.414062 -16.238281 "/></g></g></g><g fill="#7c9ae0" fill-opacity="1"><g transform="translate(94.212957, 45.19539)"><g><path d="M 13.53125 -13.53125 L 15.851562 -13.53125 L 15.851562 -15.851562 L 13.53125 -15.851562 Z M 0 0 L 2.320312 0 L 2.320312 -2.320312 L 0 -2.320312 Z M 0 -2.707031 L 2.320312 -2.707031 L 2.320312 -5.027344 L 0 -5.027344 Z M 2.707031 0 L 5.027344 0 L 5.027344 -2.320312 L 2.707031 -2.320312 Z M 0 -5.414062 L 2.320312 -5.414062 L 2.320312 -7.730469 L 0 -7.730469 Z M 2.707031 -2.707031 L 5.027344 -2.707031 L 5.027344 -5.027344 L 2.707031 -5.027344 Z M 5.414062 0 L 7.730469 0 L 7.730469 -2.320312 L 5.414062 -2.320312 Z M 0 -8.117188 L 2.320312 -8.117188 L 2.320312 -10.4375 L 0 -10.4375 Z M 2.707031 -5.414062 L 5.027344 -5.414062 L 5.027344 -7.730469 L 2.707031 -7.730469 Z M 8.117188 0 L 10.4375 0 L 10.4375 -2.320312 L 8.117188 -2.320312 Z M 0 -10.824219 L 2.320312 -10.824219 L 2.320312 -13.144531 L 0 -13.144531 Z M 2.707031 -8.117188 L 5.027344 -8.117188 L 5.027344 -10.4375 L 2.707031 -10.4375 Z M 10.824219 0 L 13.144531 0 L 13.144531 -2.320312 L 10.824219 -2.320312 Z M 0 -13.53125 L 2.320312 -13.53125 L 2.320312 -15.851562 L 0 -15.851562 Z M 2.707031 -10.824219 L 5.027344 -10.824219 L 5.027344 -13.144531 L 2.707031 -13.144531 Z M 10.824219 -2.707031 L 13.144531 -2.707031 L 13.144531 -5.027344 L 10.824219 -5.027344 Z M 0 -16.238281 L 2.320312 -16.238281 L 2.320312 -18.554688 L 0 -18.554688 Z M 2.707031 -13.53125 L 5.027344 -13.53125 L 5.027344 -15.851562 L 2.707031 -15.851562 Z M 10.824219 -5.414062 L 13.144531 -5.414062 L 13.144531 -7.730469 L 10.824219 -7.730469 Z M 13.53125 -2.707031 L 15.851562 -2.707031 L 15.851562 -5.027344 L 13.53125 -5.027344 Z M 2.707031 -16.238281 L 5.027344 -16.238281 L 5.027344 -18.554688 L 2.707031 -18.554688 Z M 10.824219 -8.117188 L 13.144531 -8.117188 L 13.144531 -10.4375 L 10.824219 -10.4375 Z M 13.53125 -5.414062 L 15.851562 -5.414062 L 15.851562 -7.730469 L 13.53125 -7.730469 Z M 5.414062 -16.238281 L 7.730469 -16.238281 L 7.730469 -18.554688 L 5.414062 -18.554688 Z M 10.824219 -10.824219 L 13.144531 -10.824219 L 13.144531 -13.144531 L 10.824219 -13.144531 Z M 13.53125 -8.117188 L 15.851562 -8.117188 L 15.851562 -10.4375 L 13.53125 -10.4375 Z M 8.117188 -16.238281 L 10.4375 -16.238281 L 10.4375 -18.554688 L 8.117188 -18.554688 Z M 10.824219 -13.53125 L 13.144531 -13.53125 L 13.144531 -15.851562 L 10.824219 -15.851562 Z M 13.53125 -10.824219 L 15.851562 -10.824219 L 15.851562 -13.144531 L 13.53125 -13.144531 Z M 10.824219 -16.238281 L 13.144531 -16.238281 L 13.144531 -18.554688 L 10.824219 -18.554688 Z M 10.824219 -16.238281 "/></g></g></g><g fill="#7c9ae0" fill-opacity="1"><g transform="translate(113.54023, 45.19539)"><g><path d="M 10.824219 -16.238281 L 13.144531 -16.238281 L 13.144531 -18.554688 L 10.824219 -18.554688 Z M 0 0 L 2.320312 0 L 2.320312 -2.320312 L 0 -2.320312 Z M 0 -2.707031 L 2.320312 -2.707031 L 2.320312 -5.027344 L 0 -5.027344 Z M 2.707031 0 L 5.027344 0 L 5.027344 -2.320312 L 2.707031 -2.320312 Z M 0 -5.414062 L 2.320312 -5.414062 L 2.320312 -7.730469 L 0 -7.730469 Z M 2.707031 -2.707031 L 5.027344 -2.707031 L 5.027344 -5.027344 L 2.707031 -5.027344 Z M 5.414062 0 L 7.730469 0 L 7.730469 -2.320312 L 5.414062 -2.320312 Z M 0 -8.117188 L 2.320312 -8.117188 L 2.320312 -10.4375 L 0 -10.4375 Z M 2.707031 -5.414062 L 5.027344 -5.414062 L 5.027344 -7.730469 L 2.707031 -7.730469 Z M 8.117188 0 L 10.4375 0 L 10.4375 -2.320312 L 8.117188 -2.320312 Z M 0 -10.824219 L 2.320312 -10.824219 L 2.320312 -13.144531 L 0 -13.144531 Z M 2.707031 -8.117188 L 5.027344 -8.117188 L 5.027344 -10.4375 L 2.707031 -10.4375 Z M 10.824219 0 L 13.144531 0 L 13.144531 -2.320312 L 10.824219 -2.320312 Z M 0 -13.53125 L 2.320312 -13.53125 L 2.320312 -15.851562 L 0 -15.851562 Z M 2.707031 -10.824219 L 5.027344 -10.824219 L 5.027344 -13.144531 L 2.707031 -13.144531 Z M 5.414062 -8.117188 L 7.730469 -8.117188 L 7.730469 -10.4375 L 5.414062 -10.4375 Z M 0 -16.238281 L 2.320312 -16.238281 L 2.320312 -18.554688 L 0 -18.554688 Z M 2.707031 -13.53125 L 5.027344 -13.53125 L 5.027344 -15.851562 L 2.707031 -15.851562 Z M 8.117188 -8.117188 L 10.4375 -8.117188 L 10.4375 -10.4375 L 8.117188 -10.4375 Z M 2.707031 -16.238281 L 5.027344 -16.238281 L 5.027344 -18.554688 L 2.707031 -18.554688 Z M 5.414062 -16.238281 L 7.730469 -16.238281 L 7.730469 -18.554688 L 5.414062 -18.554688 Z M 8.117188 -16.238281 L 10.4375 -16.238281 L 10.4375 -18.554688 L 8.117188 -18.554688 Z M 8.117188 -16.238281 "/></g></g></g><g fill="#7c9ae0" fill-opacity="1"><g transform="translate(130.161708, 45.19539)"><g><path d="M 13.53125 -16.238281 L 15.851562 -16.238281 L 15.851562 -18.554688 L 13.53125 -18.554688 Z M 0 -5.414062 L 2.320312 -5.414062 L 2.320312 -7.730469 L 0 -7.730469 Z M 2.707031 -2.707031 L 5.027344 -2.707031 L 5.027344 -5.027344 L 2.707031 -5.027344 Z M 5.414062 0 L 7.730469 0 L 7.730469 -2.320312 L 5.414062 -2.320312 Z M 0 -8.117188 L 2.320312 -8.117188 L 2.320312 -10.4375 L 0 -10.4375 Z M 2.707031 -5.414062 L 5.027344 -5.414062 L 5.027344 -7.730469 L 2.707031 -7.730469 Z M 5.414062 -2.707031 L 7.730469 -2.707031 L 7.730469 -5.027344 L 5.414062 -5.027344 Z M 8.117188 0 L 10.4375 0 L 10.4375 -2.320312 L 8.117188 -2.320312 Z M 0 -10.824219 L 2.320312 -10.824219 L 2.320312 -13.144531 L 0 -13.144531 Z M 2.707031 -8.117188 L 5.027344 -8.117188 L 5.027344 -10.4375 L 2.707031 -10.4375 Z M 8.117188 -2.707031 L 10.4375 -2.707031 L 10.4375 -5.027344 L 8.117188 -5.027344 Z M 0 -13.53125 L 2.320312 -13.53125 L 2.320312 -15.851562 L 0 -15.851562 Z M 2.707031 -10.824219 L 5.027344 -10.824219 L 5.027344 -13.144531 L 2.707031 -13.144531 Z M 10.824219 -2.707031 L 13.144531 -2.707031 L 13.144531 -5.027344 L 10.824219 -5.027344 Z M 0 -16.238281 L 2.320312 -16.238281 L 2.320312 -18.554688 L 0 -18.554688 Z M 2.707031 -13.53125 L 5.027344 -13.53125 L 5.027344 -15.851562 L 2.707031 -15.851562 Z M 10.824219 -5.414062 L 13.144531 -5.414062 L 13.144531 -7.730469 L 10.824219 -7.730469 Z M 2.707031 -16.238281 L 5.027344 -16.238281 L 5.027344 -18.554688 L 2.707031 -18.554688 Z M 10.824219 -8.117188 L 13.144531 -8.117188 L 13.144531 -10.4375 L 10.824219 -10.4375 Z M 13.53125 -5.414062 L 15.851562 -5.414062 L 15.851562 -7.730469 L 13.53125 -7.730469 Z M 10.824219 -10.824219 L 13.144531 -10.824219 L 13.144531 -13.144531 L 10.824219 -13.144531 Z M 13.53125 -8.117188 L 15.851562 -8.117188 L 15.851562 -10.4375 L 13.53125 -10.4375 Z M 10.824219 -13.53125 L 13.144531 -13.53125 L 13.144531 -15.851562 L 10.824219 -15.851562 Z M 13.53125 -10.824219 L 15.851562 -10.824219 L 15.851562 -13.144531 L 13.53125 -13.144531 Z M 10.824219 -16.238281 L 13.144531 -16.238281 L 13.144531 -18.554688 L 10.824219 -18.554688 Z M 13.53125 -13.53125 L 15.851562 -13.53125 L 15.851562 -15.851562 L 13.53125 -15.851562 Z M 13.53125 -13.53125 "/></g></g></g><g fill="#7c9ae0" fill-opacity="1"><g transform="translate(149.488981, 45.19539)"><g><path d="M 0 0.773438 L 2.320312 0 L 2.320312 -2.320312 L 0 -2.320312 Z M 0 -5.414062 L 2.320312 -5.414062 L 2.320312 -7.730469 L 0 -7.730469 Z M 0 -5.414062 "/></g></g></g><g clip-path="url(#6aba3c35a9)"><path fill="#bfebf4" d="M 87.660156 19.625 L 87.660156 18.457031 L 86.496094 18.457031 L 86.496094 17.292969 L 85.328125 17.292969 L 85.328125 16.128906 L 81.832031 16.128906 L 81.832031 17.292969 L 80.667969 17.292969 L 80.667969 18.457031 L 79.503906 18.457031 L 79.503906 17.292969 L 80.667969 17.292969 L 80.667969 14.964844 L 79.503906 14.964844 L 79.503906 13.796875 L 78.335938 13.796875 L 78.335938 12.632812 L 76.003906 12.632812 L 76.003906 13.796875 L 73.675781 13.796875 L 73.675781 12.632812 L 72.507812 12.632812 L 72.507812 11.46875 L 66.679688 11.46875 L 66.679688 12.632812 L 65.515625 12.632812 L 65.515625 13.796875 L 64.351562 13.796875 L 64.351562 14.964844 L 60.855469 14.964844 L 60.855469 16.128906 L 58.523438 16.128906 L 58.523438 14.964844 L 57.355469 14.964844 L 57.355469 12.632812 L 58.523438 12.632812 L 58.523438 10.300781 L 57.355469 10.300781 L 57.355469 9.136719 L 56.191406 9.136719 L 56.191406 7.972656 L 55.027344 7.972656 L 55.027344 6.808594 L 50.363281 6.808594 L 50.363281 5.640625 L 49.199219 5.640625 L 49.199219 4.476562 L 48.03125 4.476562 L 48.03125 3.3125 L 41.039062 3.3125 L 41.039062 4.476562 L 39.875 4.476562 L 39.875 5.640625 L 38.707031 5.640625 L 38.707031 7.972656 L 36.378906 7.972656 L 36.378906 9.136719 L 35.210938 9.136719 L 35.210938 10.300781 L 34.046875 10.300781 L 34.046875 11.46875 L 32.878906 11.46875 L 32.878906 13.796875 L 34.046875 13.796875 L 34.046875 14.964844 L 35.210938 14.964844 L 35.210938 16.128906 L 34.046875 16.128906 L 34.046875 18.457031 L 32.878906 18.457031 L 32.878906 17.292969 L 30.550781 17.292969 L 30.550781 16.128906 L 29.382812 16.128906 L 29.382812 13.796875 L 30.550781 13.796875 L 30.550781 11.46875 L 29.382812 11.46875 L 29.382812 9.136719 L 28.21875 9.136719 L 28.21875 7.972656 L 25.886719 7.972656 L 25.886719 6.808594 L 21.226562 6.808594 L 21.226562 7.972656 L 18.894531 7.972656 L 18.894531 9.136719 L 16.5625 9.136719 L 16.5625 10.300781 L 15.398438 10.300781 L 15.398438 11.46875 L 14.230469 11.46875 L 14.230469 12.632812 L 11.902344 12.632812 L 11.902344 13.796875 L 10.734375 13.796875 L 10.734375 14.964844 L 6.074219 14.964844 L 6.074219 16.128906 L 4.90625 16.128906 L 4.90625 17.292969 L 3.742188 17.292969 L 3.742188 20.789062 L 2.578125 20.789062 L 2.578125 23.117188 L 3.742188 23.117188 L 3.742188 24.285156 L 87.660156 24.285156 L 87.660156 23.117188 L 88.828125 23.117188 L 88.828125 19.625 Z M 87.660156 19.625 " fill-opacity="1" fill-rule="nonzero"/></g><path fill="#7c9ae0" d="M 18.894531 12.632812 L 17.730469 12.632812 L 17.730469 10.300781 L 18.894531 10.300781 L 18.894531 9.136719 L 16.5625 9.136719 L 16.5625 13.796875 L 17.730469 13.796875 L 17.730469 14.964844 L 18.894531 14.964844 Z M 18.894531 12.632812 " fill-opacity="1" fill-rule="nonzero"/><path fill="#7c9ae0" d="M 18.894531 14.964844 L 20.058594 14.964844 L 20.058594 16.128906 L 18.894531 16.128906 Z M 18.894531 14.964844 " fill-opacity="1" fill-rule="nonzero"/><path fill="#7c9ae0" d="M 20.058594 13.796875 L 22.390625 13.796875 L 22.390625 14.964844 L 20.058594 14.964844 Z M 20.058594 13.796875 " fill-opacity="1" fill-rule="nonzero"/><path fill="#7c9ae0" d="M 22.390625 12.632812 L 24.722656 12.632812 L 24.722656 13.796875 L 22.390625 13.796875 Z M 22.390625 12.632812 " fill-opacity="1" fill-rule="nonzero"/><path fill="#7c9ae0" d="M 24.722656 13.796875 L 25.886719 13.796875 L 25.886719 14.964844 L 24.722656 14.964844 Z M 24.722656 13.796875 " fill-opacity="1" fill-rule="nonzero"/><path fill="#7c9ae0" d="M 10.734375 14.964844 L 11.902344 14.964844 L 11.902344 16.128906 L 10.734375 16.128906 Z M 10.734375 14.964844 " fill-opacity="1" fill-rule="nonzero"/><path fill="#7c9ae0" d="M 9.570312 16.128906 L 10.734375 16.128906 L 10.734375 17.292969 L 9.570312 17.292969 Z M 9.570312 16.128906 " fill-opacity="1" fill-rule="nonzero"/><path fill="#7c9ae0" d="M 8.40625 17.292969 L 9.570312 17.292969 L 9.570312 18.457031 L 8.40625 18.457031 Z M 8.40625 17.292969 " fill-opacity="1" fill-rule="nonzero"/><path fill="#7c9ae0" d="M 9.570312 18.457031 L 10.734375 18.457031 L 10.734375 20.789062 L 9.570312 20.789062 Z M 9.570312 18.457031 " fill-opacity="1" fill-rule="nonzero"/><path fill="#7c9ae0" d="M 13.066406 19.625 L 14.230469 19.625 L 14.230469 20.789062 L 13.066406 20.789062 Z M 13.066406 19.625 " fill-opacity="1" fill-rule="nonzero"/><path fill="#7c9ae0" d="M 14.230469 18.457031 L 15.398438 18.457031 L 15.398438 19.625 L 14.230469 19.625 Z M 14.230469 18.457031 " fill-opacity="1" fill-rule="nonzero"/><path fill="#7c9ae0" d="M 18.894531 17.292969 L 18.894531 16.128906 L 17.730469 16.128906 L 17.730469 17.292969 L 15.398438 17.292969 L 15.398438 18.457031 L 18.894531 18.457031 Z M 18.894531 17.292969 " fill-opacity="1" fill-rule="nonzero"/><path fill="#7c9ae0" d="M 18.894531 18.457031 L 20.058594 18.457031 L 20.058594 19.625 L 18.894531 19.625 Z M 18.894531 18.457031 " fill-opacity="1" fill-rule="nonzero"/><path fill="#7c9ae0" d="M 20.058594 19.625 L 21.226562 19.625 L 21.226562 20.789062 L 20.058594 20.789062 Z M 20.058594 19.625 " fill-opacity="1" fill-rule="nonzero"/><path fill="#7c9ae0" d="M 24.722656 17.292969 L 27.054688 17.292969 L 27.054688 18.457031 L 24.722656 18.457031 Z M 24.722656 17.292969 " fill-opacity="1" fill-rule="nonzero"/><path fill="#7c9ae0" d="M 27.054688 16.128906 L 30.550781 16.128906 L 30.550781 17.292969 L 27.054688 17.292969 Z M 27.054688 16.128906 " fill-opacity="1" fill-rule="nonzero"/><path fill="#7c9ae0" d="M 32.878906 18.457031 L 34.046875 18.457031 L 34.046875 19.625 L 32.878906 19.625 Z M 32.878906 18.457031 " fill-opacity="1" fill-rule="nonzero"/><path fill="#7c9ae0" d="M 41.039062 9.136719 L 42.203125 9.136719 L 42.203125 10.300781 L 41.039062 10.300781 Z M 41.039062 9.136719 " fill-opacity="1" fill-rule="nonzero"/><path fill="#7c9ae0" d="M 4.90625 16.128906 L 6.074219 16.128906 L 6.074219 17.292969 L 4.90625 17.292969 Z M 4.90625 16.128906 " fill-opacity="1" fill-rule="nonzero"/><path fill="#7c9ae0" d="M 6.074219 14.964844 L 8.40625 14.964844 L 8.40625 16.128906 L 6.074219 16.128906 Z M 6.074219 14.964844 " fill-opacity="1" fill-rule="nonzero"/><path fill="#7c9ae0" d="M 48.03125 18.457031 L 49.199219 18.457031 L 49.199219 19.625 L 48.03125 19.625 Z M 48.03125 18.457031 " fill-opacity="1" fill-rule="nonzero"/><path fill="#7c9ae0" d="M 44.535156 14.964844 L 45.703125 14.964844 L 45.703125 16.128906 L 44.535156 16.128906 Z M 44.535156 14.964844 " fill-opacity="1" fill-rule="nonzero"/><path fill="#7c9ae0" d="M 43.371094 12.632812 L 44.535156 12.632812 L 44.535156 14.964844 L 43.371094 14.964844 Z M 43.371094 12.632812 " fill-opacity="1" fill-rule="nonzero"/><path fill="#7c9ae0" d="M 44.535156 10.300781 L 45.703125 10.300781 L 45.703125 12.632812 L 44.535156 12.632812 Z M 44.535156 10.300781 " fill-opacity="1" fill-rule="nonzero"/><path fill="#7c9ae0" d="M 45.703125 9.136719 L 46.867188 9.136719 L 46.867188 10.300781 L 45.703125 10.300781 Z M 45.703125 9.136719 " fill-opacity="1" fill-rule="nonzero"/><path fill="#7c9ae0" d="M 46.867188 7.972656 L 49.199219 7.972656 L 49.199219 9.136719 L 46.867188 9.136719 Z M 46.867188 7.972656 " fill-opacity="1" fill-rule="nonzero"/><path fill="#7c9ae0" d="M 49.199219 6.808594 L 51.53125 6.808594 L 51.53125 7.972656 L 49.199219 7.972656 Z M 49.199219 6.808594 " fill-opacity="1" fill-rule="nonzero"/><path fill="#7c9ae0" d="M 46.867188 14.964844 L 48.03125 14.964844 L 48.03125 16.128906 L 46.867188 16.128906 Z M 46.867188 14.964844 " fill-opacity="1" fill-rule="nonzero"/><path fill="#7c9ae0" d="M 48.03125 13.796875 L 49.199219 13.796875 L 49.199219 14.964844 L 48.03125 14.964844 Z M 48.03125 13.796875 " fill-opacity="1" fill-rule="nonzero"/><path fill="#7c9ae0" d="M 49.199219 12.632812 L 52.695312 12.632812 L 52.695312 13.796875 L 49.199219 13.796875 Z M 49.199219 12.632812 " fill-opacity="1" fill-rule="nonzero"/><path fill="#7c9ae0" d="M 52.695312 13.796875 L 53.859375 13.796875 L 53.859375 14.964844 L 52.695312 14.964844 Z M 52.695312 13.796875 " fill-opacity="1" fill-rule="nonzero"/><path fill="#7c9ae0" d="M 53.859375 18.457031 L 55.027344 18.457031 L 55.027344 19.625 L 53.859375 19.625 Z M 53.859375 18.457031 " fill-opacity="1" fill-rule="nonzero"/><path fill="#7c9ae0" d="M 55.027344 17.292969 L 57.355469 17.292969 L 57.355469 18.457031 L 55.027344 18.457031 Z M 55.027344 17.292969 " fill-opacity="1" fill-rule="nonzero"/><path fill="#7c9ae0" d="M 57.355469 16.128906 L 59.6875 16.128906 L 59.6875 17.292969 L 57.355469 17.292969 Z M 57.355469 16.128906 " fill-opacity="1" fill-rule="nonzero"/><g clip-path="url(#23bd16656a)"><path fill="#7c9ae0" d="M 80.667969 23.117188 L 80.667969 21.953125 L 79.503906 21.953125 L 79.503906 19.625 L 78.335938 19.625 L 78.335938 23.117188 L 69.011719 23.117188 L 69.011719 21.953125 L 67.847656 21.953125 L 67.847656 19.625 L 64.351562 19.625 L 64.351562 20.789062 L 65.515625 20.789062 L 65.515625 21.953125 L 63.183594 21.953125 L 63.183594 23.117188 L 55.027344 23.117188 L 55.027344 21.953125 L 53.859375 21.953125 L 53.859375 19.625 L 52.695312 19.625 L 52.695312 20.789062 L 51.53125 20.789062 L 51.53125 21.953125 L 50.363281 21.953125 L 50.363281 23.117188 L 43.371094 23.117188 L 43.371094 21.953125 L 42.203125 21.953125 L 42.203125 20.789062 L 43.371094 20.789062 L 43.371094 19.625 L 44.535156 19.625 L 44.535156 18.457031 L 48.03125 18.457031 L 48.03125 17.292969 L 46.867188 17.292969 L 46.867188 16.128906 L 45.703125 16.128906 L 45.703125 17.292969 L 43.371094 17.292969 L 43.371094 18.457031 L 42.203125 18.457031 L 42.203125 19.625 L 39.875 19.625 L 39.875 17.292969 L 38.707031 17.292969 L 38.707031 13.796875 L 35.210938 13.796875 L 35.210938 11.46875 L 36.378906 11.46875 L 36.378906 10.300781 L 37.542969 10.300781 L 37.542969 9.136719 L 41.039062 9.136719 L 41.039062 5.640625 L 42.203125 5.640625 L 42.203125 4.476562 L 44.535156 4.476562 L 44.535156 3.3125 L 41.039062 3.3125 L 41.039062 4.476562 L 39.875 4.476562 L 39.875 5.640625 L 38.707031 5.640625 L 38.707031 7.972656 L 36.378906 7.972656 L 36.378906 9.136719 L 35.210938 9.136719 L 35.210938 10.300781 L 34.046875 10.300781 L 34.046875 11.46875 L 32.878906 11.46875 L 32.878906 13.796875 L 34.046875 13.796875 L 34.046875 14.964844 L 35.210938 14.964844 L 35.210938 16.128906 L 34.046875 16.128906 L 34.046875 18.457031 L 36.378906 18.457031 L 36.378906 17.292969 L 37.542969 17.292969 L 37.542969 19.625 L 38.707031 19.625 L 38.707031 21.953125 L 39.875 21.953125 L 39.875 23.117188 L 34.046875 23.117188 L 34.046875 21.953125 L 32.878906 21.953125 L 32.878906 19.625 L 31.714844 19.625 L 31.714844 20.789062 L 30.550781 20.789062 L 30.550781 23.117188 L 25.886719 23.117188 L 25.886719 21.953125 L 24.722656 21.953125 L 24.722656 18.457031 L 23.554688 18.457031 L 23.554688 20.789062 L 22.390625 20.789062 L 22.390625 23.117188 L 14.230469 23.117188 L 14.230469 21.953125 L 13.066406 21.953125 L 13.066406 20.789062 L 10.734375 20.789062 L 10.734375 21.953125 L 11.902344 21.953125 L 11.902344 23.117188 L 6.074219 23.117188 L 6.074219 21.953125 L 4.90625 21.953125 L 4.90625 20.789062 L 6.074219 20.789062 L 6.074219 19.625 L 4.90625 19.625 L 4.90625 17.292969 L 3.742188 17.292969 L 3.742188 20.789062 L 2.578125 20.789062 L 2.578125 23.117188 L 3.742188 23.117188 L 3.742188 24.285156 L 87.660156 24.285156 L 87.660156 23.117188 Z M 80.667969 23.117188 " fill-opacity="1" fill-rule="nonzero"/></g><path fill="#7c9ae0" d="M 18.894531 7.972656 L 20.058594 7.972656 L 20.058594 9.136719 L 18.894531 9.136719 Z M 18.894531 7.972656 " fill-opacity="1" fill-rule="nonzero"/><path fill="#7c9ae0" d="M 65.515625 14.964844 L 65.515625 13.796875 L 64.351562 13.796875 L 64.351562 16.128906 L 65.515625 16.128906 Z M 65.515625 14.964844 " fill-opacity="1" fill-rule="nonzero"/><path fill="#7c9ae0" d="M 63.183594 16.128906 L 64.351562 16.128906 L 64.351562 19.625 L 63.183594 19.625 Z M 63.183594 16.128906 " fill-opacity="1" fill-rule="nonzero"/><path fill="#7c9ae0" d="M 67.847656 18.457031 L 69.011719 18.457031 L 69.011719 19.625 L 67.847656 19.625 Z M 67.847656 18.457031 " fill-opacity="1" fill-rule="nonzero"/><path fill="#7c9ae0" d="M 72.507812 17.292969 L 72.507812 16.128906 L 71.34375 16.128906 L 71.34375 17.292969 L 69.011719 17.292969 L 69.011719 18.457031 L 72.507812 18.457031 Z M 72.507812 17.292969 " fill-opacity="1" fill-rule="nonzero"/><path fill="#7c9ae0" d="M 72.507812 18.457031 L 73.675781 18.457031 L 73.675781 19.625 L 72.507812 19.625 Z M 72.507812 18.457031 " fill-opacity="1" fill-rule="nonzero"/><path fill="#7c9ae0" d="M 79.503906 18.457031 L 80.667969 18.457031 L 80.667969 19.625 L 79.503906 19.625 Z M 79.503906 18.457031 " fill-opacity="1" fill-rule="nonzero"/><path fill="#7c9ae0" d="M 72.507812 14.964844 L 73.675781 14.964844 L 73.675781 16.128906 L 72.507812 16.128906 Z M 72.507812 14.964844 " fill-opacity="1" fill-rule="nonzero"/><path fill="#7c9ae0" d="M 73.675781 13.796875 L 76.003906 13.796875 L 76.003906 14.964844 L 73.675781 14.964844 Z M 73.675781 13.796875 " fill-opacity="1" fill-rule="nonzero"/><path fill="#7c9ae0" d="M 65.515625 12.632812 L 66.679688 12.632812 L 66.679688 13.796875 L 65.515625 13.796875 Z M 65.515625 12.632812 " fill-opacity="1" fill-rule="nonzero"/><path fill="#d8bbff" d="M 20.058594 7.972656 L 21.226562 7.972656 L 21.226562 9.136719 L 20.058594 9.136719 Z M 20.058594 7.972656 " fill-opacity="1" fill-rule="nonzero"/><path fill="#d8bbff" d="M 22.390625 13.796875 L 22.390625 12.632812 L 21.226562 12.632812 L 21.226562 11.46875 L 20.058594 11.46875 L 20.058594 9.136719 L 18.894531 9.136719 L 18.894531 10.300781 L 17.730469 10.300781 L 17.730469 12.632812 L 18.894531 12.632812 L 18.894531 14.964844 L 20.058594 14.964844 L 20.058594 13.796875 Z M 22.390625 13.796875 " fill-opacity="1" fill-rule="nonzero"/><path fill="#d8bbff" d="M 22.390625 11.46875 L 24.722656 11.46875 L 24.722656 12.632812 L 22.390625 12.632812 Z M 22.390625 11.46875 " fill-opacity="1" fill-rule="nonzero"/><path fill="#d8bbff" d="M 18.894531 16.128906 L 20.058594 16.128906 L 20.058594 18.457031 L 18.894531 18.457031 Z M 18.894531 16.128906 " fill-opacity="1" fill-rule="nonzero"/><path fill="#d8bbff" d="M 20.058594 14.964844 L 22.390625 14.964844 L 22.390625 16.128906 L 20.058594 16.128906 Z M 20.058594 14.964844 " fill-opacity="1" fill-rule="nonzero"/><path fill="#d8bbff" d="M 20.058594 18.457031 L 20.058594 19.625 L 21.226562 19.625 L 21.226562 20.789062 L 23.554688 20.789062 L 23.554688 18.457031 Z M 20.058594 18.457031 " fill-opacity="1" fill-rule="nonzero"/><path fill="#d8bbff" d="M 23.554688 17.292969 L 24.722656 17.292969 L 24.722656 18.457031 L 23.554688 18.457031 Z M 23.554688 17.292969 " fill-opacity="1" fill-rule="nonzero"/><path fill="#d8bbff" d="M 15.398438 20.789062 L 16.5625 20.789062 L 16.5625 19.625 L 17.730469 19.625 L 17.730469 18.457031 L 15.398438 18.457031 L 15.398438 19.625 L 14.230469 19.625 L 14.230469 20.789062 L 13.066406 20.789062 L 13.066406 21.953125 L 14.230469 21.953125 L 14.230469 23.117188 L 22.390625 23.117188 L 22.390625 21.953125 L 15.398438 21.953125 Z M 15.398438 20.789062 " fill-opacity="1" fill-rule="nonzero"/><path fill="#d8bbff" d="M 25.886719 21.953125 L 30.550781 21.953125 L 30.550781 23.117188 L 25.886719 23.117188 Z M 25.886719 21.953125 " fill-opacity="1" fill-rule="nonzero"/><path fill="#d8bbff" d="M 43.371094 21.953125 L 50.363281 21.953125 L 50.363281 23.117188 L 43.371094 23.117188 Z M 43.371094 21.953125 " fill-opacity="1" fill-rule="nonzero"/><path fill="#d8bbff" d="M 4.90625 20.789062 L 4.90625 21.953125 L 6.074219 21.953125 L 6.074219 23.117188 L 11.902344 23.117188 L 11.902344 21.953125 L 7.238281 21.953125 L 7.238281 19.625 L 6.074219 19.625 L 6.074219 20.789062 Z M 4.90625 20.789062 " fill-opacity="1" fill-rule="nonzero"/><path fill="#d8bbff" d="M 4.90625 17.292969 L 6.074219 17.292969 L 6.074219 19.625 L 4.90625 19.625 Z M 4.90625 17.292969 " fill-opacity="1" fill-rule="nonzero"/><path fill="#d8bbff" d="M 6.074219 16.128906 L 8.40625 16.128906 L 8.40625 17.292969 L 6.074219 17.292969 Z M 6.074219 16.128906 " fill-opacity="1" fill-rule="nonzero"/><path fill="#d8bbff" d="M 8.40625 14.964844 L 10.734375 14.964844 L 10.734375 16.128906 L 8.40625 16.128906 Z M 8.40625 14.964844 " fill-opacity="1" fill-rule="nonzero"/><path fill="#d8bbff" d="M 37.542969 9.136719 L 41.039062 9.136719 L 41.039062 10.300781 L 37.542969 10.300781 Z M 37.542969 9.136719 " fill-opacity="1" fill-rule="nonzero"/><path fill="#d8bbff" d="M 37.542969 12.632812 L 37.542969 10.300781 L 36.378906 10.300781 L 36.378906 11.46875 L 35.210938 11.46875 L 35.210938 13.796875 L 38.707031 13.796875 L 38.707031 12.632812 Z M 37.542969 12.632812 " fill-opacity="1" fill-rule="nonzero"/><path fill="#d8bbff" d="M 41.039062 16.128906 L 39.875 16.128906 L 39.875 13.796875 L 38.707031 13.796875 L 38.707031 17.292969 L 39.875 17.292969 L 39.875 19.625 L 42.203125 19.625 L 42.203125 18.457031 L 41.039062 18.457031 Z M 41.039062 16.128906 " fill-opacity="1" fill-rule="nonzero"/><path fill="#d8bbff" d="M 42.203125 17.292969 L 43.371094 17.292969 L 43.371094 18.457031 L 42.203125 18.457031 Z M 42.203125 17.292969 " fill-opacity="1" fill-rule="nonzero"/><path fill="#d8bbff" d="M 24.722656 18.457031 L 24.722656 21.953125 L 25.886719 21.953125 L 25.886719 19.625 L 27.054688 19.625 L 27.054688 18.457031 Z M 24.722656 18.457031 " fill-opacity="1" fill-rule="nonzero"/><path fill="#d8bbff" d="M 27.054688 17.292969 L 30.550781 17.292969 L 30.550781 18.457031 L 27.054688 18.457031 Z M 27.054688 17.292969 " fill-opacity="1" fill-rule="nonzero"/><path fill="#d8bbff" d="M 41.039062 14.964844 L 42.203125 14.964844 L 42.203125 16.128906 L 41.039062 16.128906 Z M 41.039062 14.964844 " fill-opacity="1" fill-rule="nonzero"/><path fill="#d8bbff" d="M 35.210938 20.789062 L 34.046875 20.789062 L 34.046875 23.117188 L 39.875 23.117188 L 39.875 21.953125 L 35.210938 21.953125 Z M 35.210938 20.789062 " fill-opacity="1" fill-rule="nonzero"/><path fill="#d8bbff" d="M 29.382812 19.625 L 30.550781 19.625 L 30.550781 20.789062 L 29.382812 20.789062 Z M 29.382812 19.625 " fill-opacity="1" fill-rule="nonzero"/><path fill="#d8bbff" d="M 24.722656 10.300781 L 25.886719 10.300781 L 25.886719 11.46875 L 24.722656 11.46875 Z M 24.722656 10.300781 " fill-opacity="1" fill-rule="nonzero"/><path fill="#d8bbff" d="M 25.886719 12.632812 L 27.054688 12.632812 L 27.054688 13.796875 L 25.886719 13.796875 Z M 25.886719 12.632812 " fill-opacity="1" fill-rule="nonzero"/><path fill="#d8bbff" d="M 24.722656 16.128906 L 25.886719 16.128906 L 25.886719 17.292969 L 24.722656 17.292969 Z M 24.722656 16.128906 " fill-opacity="1" fill-rule="nonzero"/><path fill="#d8bbff" d="M 14.230469 19.625 L 14.230469 18.457031 L 11.902344 18.457031 L 11.902344 16.128906 L 10.734375 16.128906 L 10.734375 17.292969 L 9.570312 17.292969 L 9.570312 18.457031 L 10.734375 18.457031 L 10.734375 20.789062 L 13.066406 20.789062 L 13.066406 19.625 Z M 14.230469 19.625 " fill-opacity="1" fill-rule="nonzero"/><path fill="#d8bbff" d="M 14.230469 17.292969 L 15.398438 17.292969 L 15.398438 18.457031 L 14.230469 18.457031 Z M 14.230469 17.292969 " fill-opacity="1" fill-rule="nonzero"/><path fill="#d8bbff" d="M 44.535156 12.632812 L 45.703125 12.632812 L 45.703125 14.964844 L 44.535156 14.964844 Z M 44.535156 12.632812 " fill-opacity="1" fill-rule="nonzero"/><path fill="#d8bbff" d="M 45.703125 14.964844 L 46.867188 14.964844 L 46.867188 16.128906 L 45.703125 16.128906 Z M 45.703125 14.964844 " fill-opacity="1" fill-rule="nonzero"/><path fill="#d8bbff" d="M 56.191406 20.789062 L 56.191406 19.625 L 57.355469 19.625 L 57.355469 18.457031 L 55.027344 18.457031 L 55.027344 19.625 L 53.859375 19.625 L 53.859375 21.953125 L 55.027344 21.953125 L 55.027344 20.789062 Z M 56.191406 20.789062 " fill-opacity="1" fill-rule="nonzero"/><path fill="#d8bbff" d="M 63.183594 20.789062 L 63.183594 21.953125 L 65.515625 21.953125 L 65.515625 20.789062 L 64.351562 20.789062 L 64.351562 19.625 L 63.183594 19.625 Z M 63.183594 20.789062 " fill-opacity="1" fill-rule="nonzero"/><path fill="#d8bbff" d="M 57.355469 20.789062 L 56.191406 20.789062 L 56.191406 21.953125 L 55.027344 21.953125 L 55.027344 23.117188 L 63.183594 23.117188 L 63.183594 21.953125 L 57.355469 21.953125 Z M 57.355469 20.789062 " fill-opacity="1" fill-rule="nonzero"/><path fill="#d8bbff" d="M 44.535156 19.625 L 45.703125 19.625 L 45.703125 20.789062 L 44.535156 20.789062 Z M 44.535156 19.625 " fill-opacity="1" fill-rule="nonzero"/><path fill="#d8bbff" d="M 46.867188 16.128906 L 48.03125 16.128906 L 48.03125 17.292969 L 46.867188 17.292969 Z M 46.867188 16.128906 " fill-opacity="1" fill-rule="nonzero"/><path fill="#d8bbff" d="M 48.03125 17.292969 L 49.199219 17.292969 L 49.199219 18.457031 L 48.03125 18.457031 Z M 48.03125 17.292969 " fill-opacity="1" fill-rule="nonzero"/><path fill="#d8bbff" d="M 48.03125 14.964844 L 49.199219 14.964844 L 49.199219 16.128906 L 48.03125 16.128906 Z M 48.03125 14.964844 " fill-opacity="1" fill-rule="nonzero"/><path fill="#d8bbff" d="M 66.679688 11.46875 L 67.847656 11.46875 L 67.847656 13.796875 L 66.679688 13.796875 Z M 66.679688 11.46875 " fill-opacity="1" fill-rule="nonzero"/><path fill="#d8bbff" d="M 65.515625 13.796875 L 66.679688 13.796875 L 66.679688 16.128906 L 65.515625 16.128906 Z M 65.515625 13.796875 " fill-opacity="1" fill-rule="nonzero"/><path fill="#d8bbff" d="M 65.515625 18.457031 L 65.515625 16.128906 L 64.351562 16.128906 L 64.351562 19.625 L 67.847656 19.625 L 67.847656 18.457031 Z M 65.515625 18.457031 " fill-opacity="1" fill-rule="nonzero"/><path fill="#d8bbff" d="M 67.847656 17.292969 L 69.011719 17.292969 L 69.011719 18.457031 L 67.847656 18.457031 Z M 67.847656 17.292969 " fill-opacity="1" fill-rule="nonzero"/><path fill="#d8bbff" d="M 69.011719 16.128906 L 71.34375 16.128906 L 71.34375 17.292969 L 69.011719 17.292969 Z M 69.011719 16.128906 " fill-opacity="1" fill-rule="nonzero"/><path fill="#d8bbff" d="M 67.847656 19.625 L 69.011719 19.625 L 69.011719 21.953125 L 67.847656 21.953125 Z M 67.847656 19.625 " fill-opacity="1" fill-rule="nonzero"/><path fill="#d8bbff" d="M 67.847656 14.964844 L 69.011719 14.964844 L 69.011719 16.128906 L 67.847656 16.128906 Z M 67.847656 14.964844 " fill-opacity="1" fill-rule="nonzero"/><path fill="#d8bbff" d="M 71.34375 14.964844 L 72.507812 14.964844 L 72.507812 16.128906 L 71.34375 16.128906 Z M 71.34375 14.964844 " fill-opacity="1" fill-rule="nonzero"/><path fill="#d8bbff" d="M 62.019531 16.128906 L 63.183594 16.128906 L 63.183594 17.292969 L 62.019531 17.292969 Z M 62.019531 16.128906 " fill-opacity="1" fill-rule="nonzero"/><path fill="#d8bbff" d="M 77.171875 21.953125 L 69.011719 21.953125 L 69.011719 23.117188 L 78.335938 23.117188 L 78.335938 19.625 L 77.171875 19.625 Z M 77.171875 21.953125 " fill-opacity="1" fill-rule="nonzero"/><path fill="#d8bbff" d="M 76.003906 18.457031 L 77.171875 18.457031 L 77.171875 19.625 L 76.003906 19.625 Z M 76.003906 18.457031 " fill-opacity="1" fill-rule="nonzero"/><path fill="#d8bbff" d="M 81.832031 18.457031 L 80.667969 18.457031 L 80.667969 19.625 L 79.503906 19.625 L 79.503906 21.953125 L 80.667969 21.953125 L 80.667969 23.117188 L 87.660156 23.117188 L 87.660156 21.953125 L 81.832031 21.953125 Z M 81.832031 18.457031 " fill-opacity="1" fill-rule="nonzero"/><g clip-path="url(#fc773cf03c)"><path fill="#d8bbff" d="M 87.660156 19.625 L 88.828125 19.625 L 88.828125 21.953125 L 87.660156 21.953125 Z M 87.660156 19.625 " fill-opacity="1" fill-rule="nonzero"/></g><path fill="#d8bbff" d="M 41.039062 5.640625 L 42.203125 5.640625 L 42.203125 9.136719 L 41.039062 9.136719 Z M 41.039062 5.640625 " fill-opacity="1" fill-rule="nonzero"/><path fill="#d8bbff" d="M 42.203125 4.476562 L 44.535156 4.476562 L 44.535156 5.640625 L 42.203125 5.640625 Z M 42.203125 4.476562 " fill-opacity="1" fill-rule="nonzero"/><path fill="#d8bbff" d="M 45.703125 10.300781 L 46.867188 10.300781 L 46.867188 12.632812 L 45.703125 12.632812 Z M 45.703125 10.300781 " fill-opacity="1" fill-rule="nonzero"/><path fill="#d8bbff" d="M 46.867188 9.136719 L 48.03125 9.136719 L 48.03125 10.300781 L 46.867188 10.300781 Z M 46.867188 9.136719 " fill-opacity="1" fill-rule="nonzero"/><path fill="#d8bbff" d="M 49.199219 7.972656 L 50.363281 7.972656 L 50.363281 9.136719 L 49.199219 9.136719 Z M 49.199219 7.972656 " fill-opacity="1" fill-rule="nonzero"/><path fill="#d8bbff" d="M 14.230469 11.46875 L 15.398438 11.46875 L 15.398438 12.632812 L 14.230469 12.632812 Z M 14.230469 11.46875 " fill-opacity="1" fill-rule="nonzero"/><path fill="#d8bbff" d="M 10.734375 13.796875 L 11.902344 13.796875 L 11.902344 14.964844 L 10.734375 14.964844 Z M 10.734375 13.796875 " fill-opacity="1" fill-rule="nonzero"/><path fill="#d8bbff" d="M 11.902344 12.632812 L 14.230469 12.632812 L 14.230469 13.796875 L 11.902344 13.796875 Z M 11.902344 12.632812 " fill-opacity="1" fill-rule="nonzero"/><path fill="#f2fcfc" d="M 28.21875 9.136719 L 28.21875 7.972656 L 25.886719 7.972656 L 25.886719 6.808594 L 21.226562 6.808594 L 21.226562 7.972656 L 24.722656 7.972656 L 24.722656 9.136719 L 27.054688 9.136719 L 27.054688 10.300781 L 28.21875 10.300781 L 28.21875 11.46875 L 29.382812 11.46875 L 29.382812 9.136719 Z M 28.21875 9.136719 " fill-opacity="1" fill-rule="nonzero"/><path fill="#f2fcfc" d="M 29.382812 11.46875 L 30.550781 11.46875 L 30.550781 13.796875 L 29.382812 13.796875 Z M 29.382812 11.46875 " fill-opacity="1" fill-rule="nonzero"/><path fill="#f2fcfc" d="M 28.21875 13.796875 L 29.382812 13.796875 L 29.382812 16.128906 L 28.21875 16.128906 Z M 28.21875 13.796875 " fill-opacity="1" fill-rule="nonzero"/><path fill="#f2fcfc" d="M 17.730469 16.128906 L 18.894531 16.128906 L 18.894531 14.964844 L 17.730469 14.964844 L 17.730469 13.796875 L 16.5625 13.796875 L 16.5625 16.128906 L 15.398438 16.128906 L 15.398438 17.292969 L 17.730469 17.292969 Z M 17.730469 16.128906 " fill-opacity="1" fill-rule="nonzero"/><path fill="#f2fcfc" d="M 22.390625 13.796875 L 24.722656 13.796875 L 24.722656 14.964844 L 22.390625 14.964844 Z M 22.390625 13.796875 " fill-opacity="1" fill-rule="nonzero"/><path fill="#f2fcfc" d="M 30.550781 17.292969 L 32.878906 17.292969 L 32.878906 18.457031 L 30.550781 18.457031 Z M 30.550781 17.292969 " fill-opacity="1" fill-rule="nonzero"/><path fill="#f2fcfc" d="M 36.378906 17.292969 L 37.542969 17.292969 L 37.542969 18.457031 L 36.378906 18.457031 Z M 36.378906 17.292969 " fill-opacity="1" fill-rule="nonzero"/><path fill="#f2fcfc" d="M 34.046875 18.457031 L 36.378906 18.457031 L 36.378906 19.625 L 34.046875 19.625 Z M 34.046875 18.457031 " fill-opacity="1" fill-rule="nonzero"/><path fill="#f2fcfc" d="M 27.054688 12.632812 L 28.21875 12.632812 L 28.21875 13.796875 L 27.054688 13.796875 Z M 27.054688 12.632812 " fill-opacity="1" fill-rule="nonzero"/><path fill="#f2fcfc" d="M 23.554688 9.136719 L 24.722656 9.136719 L 24.722656 10.300781 L 23.554688 10.300781 Z M 23.554688 9.136719 " fill-opacity="1" fill-rule="nonzero"/><path fill="#f2fcfc" d="M 48.03125 4.476562 L 49.199219 4.476562 L 49.199219 5.640625 L 48.03125 5.640625 Z M 48.03125 4.476562 " fill-opacity="1" fill-rule="nonzero"/><path fill="#f2fcfc" d="M 49.199219 5.640625 L 50.363281 5.640625 L 50.363281 6.808594 L 49.199219 6.808594 Z M 49.199219 5.640625 " fill-opacity="1" fill-rule="nonzero"/><path fill="#f2fcfc" d="M 48.03125 6.808594 L 49.199219 6.808594 L 49.199219 7.972656 L 48.03125 7.972656 Z M 48.03125 6.808594 " fill-opacity="1" fill-rule="nonzero"/><g clip-path="url(#41a01184fe)"><path fill="#f2fcfc" d="M 44.535156 3.3125 L 48.03125 3.3125 L 48.03125 4.476562 L 44.535156 4.476562 Z M 44.535156 3.3125 " fill-opacity="1" fill-rule="nonzero"/></g><path fill="#f2fcfc" d="M 51.53125 6.808594 L 55.027344 6.808594 L 55.027344 7.972656 L 51.53125 7.972656 Z M 51.53125 6.808594 " fill-opacity="1" fill-rule="nonzero"/><path fill="#f2fcfc" d="M 55.027344 7.972656 L 56.191406 7.972656 L 56.191406 9.136719 L 55.027344 9.136719 Z M 55.027344 7.972656 " fill-opacity="1" fill-rule="nonzero"/><path fill="#f2fcfc" d="M 53.859375 9.136719 L 55.027344 9.136719 L 55.027344 10.300781 L 53.859375 10.300781 Z M 53.859375 9.136719 " fill-opacity="1" fill-rule="nonzero"/><path fill="#f2fcfc" d="M 56.191406 9.136719 L 57.355469 9.136719 L 57.355469 10.300781 L 56.191406 10.300781 Z M 56.191406 9.136719 " fill-opacity="1" fill-rule="nonzero"/><path fill="#f2fcfc" d="M 57.355469 10.300781 L 58.523438 10.300781 L 58.523438 12.632812 L 57.355469 12.632812 Z M 57.355469 10.300781 " fill-opacity="1" fill-rule="nonzero"/><path fill="#f2fcfc" d="M 56.191406 12.632812 L 57.355469 12.632812 L 57.355469 14.964844 L 56.191406 14.964844 Z M 56.191406 12.632812 " fill-opacity="1" fill-rule="nonzero"/><path fill="#f2fcfc" d="M 57.355469 14.964844 L 58.523438 14.964844 L 58.523438 16.128906 L 57.355469 16.128906 Z M 57.355469 14.964844 " fill-opacity="1" fill-rule="nonzero"/><path fill="#f2fcfc" d="M 55.027344 11.46875 L 56.191406 11.46875 L 56.191406 12.632812 L 55.027344 12.632812 Z M 55.027344 11.46875 " fill-opacity="1" fill-rule="nonzero"/><path fill="#f2fcfc" d="M 49.199219 13.796875 L 52.695312 13.796875 L 52.695312 14.964844 L 49.199219 14.964844 Z M 49.199219 13.796875 " fill-opacity="1" fill-rule="nonzero"/><path fill="#f2fcfc" d="M 52.695312 14.964844 L 53.859375 14.964844 L 53.859375 16.128906 L 52.695312 16.128906 Z M 52.695312 14.964844 " fill-opacity="1" fill-rule="nonzero"/><path fill="#f2fcfc" d="M 60.855469 14.964844 L 64.351562 14.964844 L 64.351562 16.128906 L 60.855469 16.128906 Z M 60.855469 14.964844 " fill-opacity="1" fill-rule="nonzero"/><path fill="#f2fcfc" d="M 53.859375 17.292969 L 55.027344 17.292969 L 55.027344 18.457031 L 53.859375 18.457031 Z M 53.859375 17.292969 " fill-opacity="1" fill-rule="nonzero"/><path fill="#f2fcfc" d="M 52.695312 10.300781 L 53.859375 10.300781 L 53.859375 11.46875 L 52.695312 11.46875 Z M 52.695312 10.300781 " fill-opacity="1" fill-rule="nonzero"/><path fill="#f2fcfc" d="M 67.847656 11.46875 L 72.507812 11.46875 L 72.507812 12.632812 L 67.847656 12.632812 Z M 67.847656 11.46875 " fill-opacity="1" fill-rule="nonzero"/><path fill="#f2fcfc" d="M 72.507812 12.632812 L 73.675781 12.632812 L 73.675781 13.796875 L 72.507812 13.796875 Z M 72.507812 12.632812 " fill-opacity="1" fill-rule="nonzero"/><path fill="#f2fcfc" d="M 71.34375 13.796875 L 72.507812 13.796875 L 72.507812 14.964844 L 71.34375 14.964844 Z M 71.34375 13.796875 " fill-opacity="1" fill-rule="nonzero"/><path fill="#f2fcfc" d="M 76.003906 12.632812 L 78.335938 12.632812 L 78.335938 13.796875 L 76.003906 13.796875 Z M 76.003906 12.632812 " fill-opacity="1" fill-rule="nonzero"/><path fill="#f2fcfc" d="M 78.335938 13.796875 L 79.503906 13.796875 L 79.503906 14.964844 L 78.335938 14.964844 Z M 78.335938 13.796875 " fill-opacity="1" fill-rule="nonzero"/><path fill="#f2fcfc" d="M 79.503906 14.964844 L 80.667969 14.964844 L 80.667969 17.292969 L 79.503906 17.292969 Z M 79.503906 14.964844 " fill-opacity="1" fill-rule="nonzero"/><path fill="#f2fcfc" d="M 77.171875 14.964844 L 78.335938 14.964844 L 78.335938 16.128906 L 77.171875 16.128906 Z M 77.171875 14.964844 " fill-opacity="1" fill-rule="nonzero"/><path fill="#f2fcfc" d="M 76.003906 19.625 L 77.171875 19.625 L 77.171875 20.789062 L 76.003906 20.789062 Z M 76.003906 19.625 " fill-opacity="1" fill-rule="nonzero"/><path fill="#f2fcfc" d="M 73.675781 16.128906 L 74.839844 16.128906 L 74.839844 17.292969 L 73.675781 17.292969 Z M 73.675781 16.128906 " fill-opacity="1" fill-rule="nonzero"/><path fill="#f2fcfc" d="M 45.703125 7.972656 L 46.867188 7.972656 L 46.867188 9.136719 L 45.703125 9.136719 Z M 45.703125 7.972656 " fill-opacity="1" fill-rule="nonzero"/><path fill="#f2fcfc" d="M 44.535156 6.808594 L 45.703125 6.808594 L 45.703125 7.972656 L 44.535156 7.972656 Z M 44.535156 6.808594 " fill-opacity="1" fill-rule="nonzero"/><path fill="#f2fcfc" d="M 80.667969 17.292969 L 81.832031 17.292969 L 81.832031 18.457031 L 80.667969 18.457031 Z M 80.667969 17.292969 " fill-opacity="1" fill-rule="nonzero"/><path fill="#f2fcfc" d="M 81.832031 16.128906 L 85.328125 16.128906 L 85.328125 17.292969 L 81.832031 17.292969 Z M 81.832031 16.128906 " fill-opacity="1" fill-rule="nonzero"/><path fill="#f2fcfc" d="M 85.328125 17.292969 L 86.496094 17.292969 L 86.496094 18.457031 L 85.328125 18.457031 Z M 85.328125 17.292969 " fill-opacity="1" fill-rule="nonzero"/><path fill="#f2fcfc" d="M 86.496094 18.457031 L 87.660156 18.457031 L 87.660156 19.625 L 86.496094 19.625 Z M 86.496094 18.457031 " fill-opacity="1" fill-rule="nonzero"/><path fill="#f2fcfc" d="M 85.328125 19.625 L 86.496094 19.625 L 86.496094 20.789062 L 85.328125 20.789062 Z M 85.328125 19.625 " fill-opacity="1" fill-rule="nonzero"/><path fill="#f2fcfc" d="M 83 18.457031 L 84.164062 18.457031 L 84.164062 19.625 L 83 19.625 Z M 83 18.457031 " fill-opacity="1" fill-rule="nonzero"/><path fill="#f2fcfc" d="M 59.6875 17.292969 L 60.855469 17.292969 L 60.855469 18.457031 L 59.6875 18.457031 Z M 59.6875 17.292969 " fill-opacity="1" fill-rule="nonzero"/><path fill="#f2fcfc" d="M 15.398438 10.300781 L 16.5625 10.300781 L 16.5625 11.46875 L 15.398438 11.46875 Z M 15.398438 10.300781 " fill-opacity="1" fill-rule="nonzero"/><path fill="#f2fcfc" d="M 17.730469 18.457031 L 18.894531 18.457031 L 18.894531 19.625 L 17.730469 19.625 Z M 17.730469 18.457031 " fill-opacity="1" fill-rule="nonzero"/><path fill="#f2fcfc" d="M 18.894531 19.625 L 20.058594 19.625 L 20.058594 20.789062 L 18.894531 20.789062 Z M 18.894531 19.625 " fill-opacity="1" fill-rule="nonzero"/><path fill="#f2fcfc" d="M 8.40625 16.128906 L 9.570312 16.128906 L 9.570312 17.292969 L 8.40625 17.292969 Z M 8.40625 16.128906 " fill-opacity="1" fill-rule="nonzero"/><path fill="#f2fcfc" d="M 23.554688 16.128906 L 24.722656 16.128906 L 24.722656 17.292969 L 23.554688 17.292969 Z M 23.554688 16.128906 " fill-opacity="1" fill-rule="nonzero"/><path fill="#f2fcfc" d="M 22.390625 17.292969 L 23.554688 17.292969 L 23.554688 18.457031 L 22.390625 18.457031 Z M 22.390625 17.292969 " fill-opacity="1" fill-rule="nonzero"/><path fill="#f2fcfc" d="M 44.535156 16.128906 L 45.703125 16.128906 L 45.703125 17.292969 L 44.535156 17.292969 Z M 44.535156 16.128906 " fill-opacity="1" fill-rule="nonzero"/><path fill="#f2fcfc" d="M 42.203125 12.632812 L 43.371094 12.632812 L 43.371094 14.964844 L 42.203125 14.964844 Z M 42.203125 12.632812 " fill-opacity="1" fill-rule="nonzero"/><path fill="#f2fcfc" d="M 41.039062 11.46875 L 42.203125 11.46875 L 42.203125 12.632812 L 41.039062 12.632812 Z M 41.039062 11.46875 " fill-opacity="1" fill-rule="nonzero"/><path fill="#f2fcfc" d="M 43.371094 10.300781 L 44.535156 10.300781 L 44.535156 11.46875 L 43.371094 11.46875 Z M 43.371094 10.300781 " fill-opacity="1" fill-rule="nonzero"/><path fill="#f2fcfc" d="M 50.363281 20.789062 L 51.53125 20.789062 L 51.53125 21.953125 L 50.363281 21.953125 Z M 50.363281 20.789062 " fill-opacity="1" fill-rule="nonzero"/><path fill="#f2fcfc" d="M 51.53125 18.457031 L 53.859375 18.457031 L 53.859375 19.625 L 51.53125 19.625 Z M 51.53125 18.457031 " fill-opacity="1" fill-rule="nonzero"/><path fill="#f2fcfc" d="M 50.363281 17.292969 L 51.53125 17.292969 L 51.53125 18.457031 L 50.363281 18.457031 Z M 50.363281 17.292969 " fill-opacity="1" fill-rule="nonzero"/><path fill="#f2fcfc" d="M 62.019531 20.789062 L 63.183594 20.789062 L 63.183594 21.953125 L 62.019531 21.953125 Z M 62.019531 20.789062 " fill-opacity="1" fill-rule="nonzero"/><g fill="#b9f3fd" fill-opacity="1"><g transform="translate(106.430323, 24.987447)"><g><path d="M 2.269531 -2.722656 L 2.660156 -2.722656 L 2.660156 -3.113281 L 2.269531 -3.113281 Z M 0 -0.453125 L 0.390625 -0.453125 L 0.390625 -0.84375 L 0 -0.84375 Z M 0.453125 0 L 0.84375 0 L 0.84375 -0.390625 L 0.453125 -0.390625 Z M 0 -0.90625 L 0.390625 -0.90625 L 0.390625 -1.296875 L 0 -1.296875 Z M 0.453125 -0.453125 L 0.84375 -0.453125 L 0.84375 -0.84375 L 0.453125 -0.84375 Z M 0.90625 0 L 1.296875 0 L 1.296875 -0.390625 L 0.90625 -0.390625 Z M 0.453125 -0.90625 L 0.84375 -0.90625 L 0.84375 -1.296875 L 0.453125 -1.296875 Z M 1.363281 0 L 1.75 0 L 1.75 -0.390625 L 1.363281 -0.390625 Z M 1.816406 0 L 2.203125 0 L 2.203125 -0.390625 L 1.816406 -0.390625 Z M 1.816406 -0.453125 L 2.203125 -0.453125 L 2.203125 -0.84375 L 1.816406 -0.84375 Z M 1.816406 -0.90625 L 2.203125 -0.90625 L 2.203125 -1.296875 L 1.816406 -1.296875 Z M 2.269531 -0.453125 L 2.660156 -0.453125 L 2.660156 -0.84375 L 2.269531 -0.84375 Z M 1.816406 -1.363281 L 2.203125 -1.363281 L 2.203125 -1.75 L 1.816406 -1.75 Z M 2.269531 -0.90625 L 2.660156 -0.90625 L 2.660156 -1.296875 L 2.269531 -1.296875 Z M 0.90625 -2.722656 L 1.296875 -2.722656 L 1.296875 -3.113281 L 0.90625 -3.113281 Z M 1.816406 -1.816406 L 2.203125 -1.816406 L 2.203125 -2.203125 L 1.816406 -2.203125 Z M 2.269531 -1.363281 L 2.660156 -1.363281 L 2.660156 -1.75 L 2.269531 -1.75 Z M 1.363281 -2.722656 L 1.75 -2.722656 L 1.75 -3.113281 L 1.363281 -3.113281 Z M 1.816406 -2.269531 L 2.203125 -2.269531 L 2.203125 -2.660156 L 1.816406 -2.660156 Z M 2.269531 -1.816406 L 2.660156 -1.816406 L 2.660156 -2.203125 L 2.269531 -2.203125 Z M 1.816406 -2.722656 L 2.203125 -2.722656 L 2.203125 -3.113281 L 1.816406 -3.113281 Z M 2.269531 -2.269531 L 2.660156 -2.269531 L 2.660156 -2.660156 L 2.269531 -2.660156 Z M 2.269531 -2.269531 "/></g></g></g><g fill="#b9f3fd" fill-opacity="1"><g transform="translate(110.319495, 24.987447)"><g><path d="M 2.269531 -2.269531 L 2.660156 -2.269531 L 2.660156 -2.660156 L 2.269531 -2.660156 Z M 0 -0.453125 L 0.390625 -0.453125 L 0.390625 -0.84375 L 0 -0.84375 Z M 0.453125 0 L 0.84375 0 L 0.84375 -0.390625 L 0.453125 -0.390625 Z M 0 -0.90625 L 0.390625 -0.90625 L 0.390625 -1.296875 L 0 -1.296875 Z M 0.453125 -0.453125 L 0.84375 -0.453125 L 0.84375 -0.84375 L 0.453125 -0.84375 Z M 0.90625 0 L 1.296875 0 L 1.296875 -0.390625 L 0.90625 -0.390625 Z M 0 -1.363281 L 0.390625 -1.363281 L 0.390625 -1.75 L 0 -1.75 Z M 0.453125 -0.90625 L 0.84375 -0.90625 L 0.84375 -1.296875 L 0.453125 -1.296875 Z M 1.363281 0 L 1.75 0 L 1.75 -0.390625 L 1.363281 -0.390625 Z M 0 -1.816406 L 0.390625 -1.816406 L 0.390625 -2.203125 L 0 -2.203125 Z M 0.453125 -1.363281 L 0.84375 -1.363281 L 0.84375 -1.75 L 0.453125 -1.75 Z M 1.816406 0 L 2.203125 0 L 2.203125 -0.390625 L 1.816406 -0.390625 Z M 0 -2.269531 L 0.390625 -2.269531 L 0.390625 -2.660156 L 0 -2.660156 Z M 0.453125 -1.816406 L 0.84375 -1.816406 L 0.84375 -2.203125 L 0.453125 -2.203125 Z M 1.816406 -0.453125 L 2.203125 -0.453125 L 2.203125 -0.84375 L 1.816406 -0.84375 Z M 0.453125 -2.269531 L 0.84375 -2.269531 L 0.84375 -2.660156 L 0.453125 -2.660156 Z M 1.816406 -0.90625 L 2.203125 -0.90625 L 2.203125 -1.296875 L 1.816406 -1.296875 Z M 2.269531 -0.453125 L 2.660156 -0.453125 L 2.660156 -0.84375 L 2.269531 -0.84375 Z M 0.453125 -2.722656 L 0.84375 -2.722656 L 0.84375 -3.113281 L 0.453125 -3.113281 Z M 1.816406 -1.363281 L 2.203125 -1.363281 L 2.203125 -1.75 L 1.816406 -1.75 Z M 2.269531 -0.90625 L 2.660156 -0.90625 L 2.660156 -1.296875 L 2.269531 -1.296875 Z M 0.90625 -2.722656 L 1.296875 -2.722656 L 1.296875 -3.113281 L 0.90625 -3.113281 Z M 1.816406 -1.816406 L 2.203125 -1.816406 L 2.203125 -2.203125 L 1.816406 -2.203125 Z M 2.269531 -1.363281 L 2.660156 -1.363281 L 2.660156 -1.75 L 2.269531 -1.75 Z M 1.363281 -2.722656 L 1.75 -2.722656 L 1.75 -3.113281 L 1.363281 -3.113281 Z M 1.816406 -2.269531 L 2.203125 -2.269531 L 2.203125 -2.660156 L 1.816406 -2.660156 Z M 2.269531 -1.816406 L 2.660156 -1.816406 L 2.660156 -2.203125 L 2.269531 -2.203125 Z M 1.816406 -2.722656 L 2.203125 -2.722656 L 2.203125 -3.113281 L 1.816406 -3.113281 Z M 1.816406 -2.722656 "/></g></g></g><g fill="#b9f3fd" fill-opacity="1"><g transform="translate(114.208668, 24.987447)"><g><path d="M 2.269531 -2.269531 L 2.660156 -2.269531 L 2.660156 -2.660156 L 2.269531 -2.660156 Z M 0 0 L 0.390625 0 L 0.390625 -0.390625 L 0 -0.390625 Z M 0 -0.453125 L 0.390625 -0.453125 L 0.390625 -0.84375 L 0 -0.84375 Z M 0.453125 0 L 0.84375 0 L 0.84375 -0.390625 L 0.453125 -0.390625 Z M 0 -0.90625 L 0.390625 -0.90625 L 0.390625 -1.296875 L 0 -1.296875 Z M 0.453125 -0.453125 L 0.84375 -0.453125 L 0.84375 -0.84375 L 0.453125 -0.84375 Z M 0 -1.363281 L 0.390625 -1.363281 L 0.390625 -1.75 L 0 -1.75 Z M 0.453125 -0.90625 L 0.84375 -0.90625 L 0.84375 -1.296875 L 0.453125 -1.296875 Z M 0 -1.816406 L 0.390625 -1.816406 L 0.390625 -2.203125 L 0 -2.203125 Z M 0.453125 -1.363281 L 0.84375 -1.363281 L 0.84375 -1.75 L 0.453125 -1.75 Z M 1.816406 0 L 2.203125 0 L 2.203125 -0.390625 L 1.816406 -0.390625 Z M 0 -2.269531 L 0.390625 -2.269531 L 0.390625 -2.660156 L 0 -2.660156 Z M 0.453125 -1.816406 L 0.84375 -1.816406 L 0.84375 -2.203125 L 0.453125 -2.203125 Z M 0.90625 -1.363281 L 1.296875 -1.363281 L 1.296875 -1.75 L 0.90625 -1.75 Z M 1.816406 -0.453125 L 2.203125 -0.453125 L 2.203125 -0.84375 L 1.816406 -0.84375 Z M 2.269531 0 L 2.660156 0 L 2.660156 -0.390625 L 2.269531 -0.390625 Z M 0 -2.722656 L 0.390625 -2.722656 L 0.390625 -3.113281 L 0 -3.113281 Z M 0.453125 -2.269531 L 0.84375 -2.269531 L 0.84375 -2.660156 L 0.453125 -2.660156 Z M 1.363281 -1.363281 L 1.75 -1.363281 L 1.75 -1.75 L 1.363281 -1.75 Z M 1.816406 -0.90625 L 2.203125 -0.90625 L 2.203125 -1.296875 L 1.816406 -1.296875 Z M 2.269531 -0.453125 L 2.660156 -0.453125 L 2.660156 -0.84375 L 2.269531 -0.84375 Z M 0.453125 -2.722656 L 0.84375 -2.722656 L 0.84375 -3.113281 L 0.453125 -3.113281 Z M 1.816406 -1.363281 L 2.203125 -1.363281 L 2.203125 -1.75 L 1.816406 -1.75 Z M 2.269531 -0.90625 L 2.660156 -0.90625 L 2.660156 -1.296875 L 2.269531 -1.296875 Z M 0.90625 -2.722656 L 1.296875 -2.722656 L 1.296875 -3.113281 L 0.90625 -3.113281 Z M 1.816406 -1.816406 L 2.203125 -1.816406 L 2.203125 -2.203125 L 1.816406 -2.203125 Z M 1.363281 -2.722656 L 1.75 -2.722656 L 1.75 -3.113281 L 1.363281 -3.113281 Z M 1.816406 -2.269531 L 2.203125 -2.269531 L 2.203125 -2.660156 L 1.816406 -2.660156 Z M 2.269531 -1.816406 L 2.660156 -1.816406 L 2.660156 -2.203125 L 2.269531 -2.203125 Z M 1.816406 -2.722656 L 2.203125 -2.722656 L 2.203125 -3.113281 L 1.816406 -3.113281 Z M 1.816406 -2.722656 "/></g></g></g><g fill="#b9f3fd" fill-opacity="1"><g transform="translate(118.09784, 24.987447)"><g><path d="M 2.269531 -2.269531 L 2.660156 -2.269531 L 2.660156 -2.660156 L 2.269531 -2.660156 Z M 0 -0.453125 L 0.390625 -0.453125 L 0.390625 -0.84375 L 0 -0.84375 Z M 0.453125 0 L 0.84375 0 L 0.84375 -0.390625 L 0.453125 -0.390625 Z M 0 -0.90625 L 0.390625 -0.90625 L 0.390625 -1.296875 L 0 -1.296875 Z M 0.453125 -0.453125 L 0.84375 -0.453125 L 0.84375 -0.84375 L 0.453125 -0.84375 Z M 0.90625 0 L 1.296875 0 L 1.296875 -0.390625 L 0.90625 -0.390625 Z M 0 -1.363281 L 0.390625 -1.363281 L 0.390625 -1.75 L 0 -1.75 Z M 0.453125 -0.90625 L 0.84375 -0.90625 L 0.84375 -1.296875 L 0.453125 -1.296875 Z M 1.363281 0 L 1.75 0 L 1.75 -0.390625 L 1.363281 -0.390625 Z M 0 -1.816406 L 0.390625 -1.816406 L 0.390625 -2.203125 L 0 -2.203125 Z M 0.453125 -1.363281 L 0.84375 -1.363281 L 0.84375 -1.75 L 0.453125 -1.75 Z M 1.816406 0 L 2.203125 0 L 2.203125 -0.390625 L 1.816406 -0.390625 Z M 0 -2.269531 L 0.390625 -2.269531 L 0.390625 -2.660156 L 0 -2.660156 Z M 0.453125 -1.816406 L 0.84375 -1.816406 L 0.84375 -2.203125 L 0.453125 -2.203125 Z M 1.816406 -0.453125 L 2.203125 -0.453125 L 2.203125 -0.84375 L 1.816406 -0.84375 Z M 0.453125 -2.269531 L 0.84375 -2.269531 L 0.84375 -2.660156 L 0.453125 -2.660156 Z M 1.363281 -1.363281 L 1.75 -1.363281 L 1.75 -1.75 L 1.363281 -1.75 Z M 1.816406 -0.90625 L 2.203125 -0.90625 L 2.203125 -1.296875 L 1.816406 -1.296875 Z M 2.269531 -0.453125 L 2.660156 -0.453125 L 2.660156 -0.84375 L 2.269531 -0.84375 Z M 0.453125 -2.722656 L 0.84375 -2.722656 L 0.84375 -3.113281 L 0.453125 -3.113281 Z M 1.816406 -1.363281 L 2.203125 -1.363281 L 2.203125 -1.75 L 1.816406 -1.75 Z M 2.269531 -0.90625 L 2.660156 -0.90625 L 2.660156 -1.296875 L 2.269531 -1.296875 Z M 0.90625 -2.722656 L 1.296875 -2.722656 L 1.296875 -3.113281 L 0.90625 -3.113281 Z M 2.269531 -1.363281 L 2.660156 -1.363281 L 2.660156 -1.75 L 2.269531 -1.75 Z M 1.363281 -2.722656 L 1.75 -2.722656 L 1.75 -3.113281 L 1.363281 -3.113281 Z M 1.816406 -2.269531 L 2.203125 -2.269531 L 2.203125 -2.660156 L 1.816406 -2.660156 Z M 1.816406 -2.722656 L 2.203125 -2.722656 L 2.203125 -3.113281 L 1.816406 -3.113281 Z M 1.816406 -2.722656 "/></g></g></g><g fill="#b9f3fd" fill-opacity="1"><g transform="translate(121.987012, 24.987447)"><g><path d="M 1.816406 -2.722656 L 2.203125 -2.722656 L 2.203125 -3.113281 L 1.816406 -3.113281 Z M 0 0 L 0.390625 0 L 0.390625 -0.390625 L 0 -0.390625 Z M 0 -0.453125 L 0.390625 -0.453125 L 0.390625 -0.84375 L 0 -0.84375 Z M 0.453125 0 L 0.84375 0 L 0.84375 -0.390625 L 0.453125 -0.390625 Z M 0 -0.90625 L 0.390625 -0.90625 L 0.390625 -1.296875 L 0 -1.296875 Z M 0.453125 -0.453125 L 0.84375 -0.453125 L 0.84375 -0.84375 L 0.453125 -0.84375 Z M 0.90625 0 L 1.296875 0 L 1.296875 -0.390625 L 0.90625 -0.390625 Z M 0 -1.363281 L 0.390625 -1.363281 L 0.390625 -1.75 L 0 -1.75 Z M 0.453125 -0.90625 L 0.84375 -0.90625 L 0.84375 -1.296875 L 0.453125 -1.296875 Z M 1.363281 0 L 1.75 0 L 1.75 -0.390625 L 1.363281 -0.390625 Z M 0 -1.816406 L 0.390625 -1.816406 L 0.390625 -2.203125 L 0 -2.203125 Z M 0.453125 -1.363281 L 0.84375 -1.363281 L 0.84375 -1.75 L 0.453125 -1.75 Z M 1.816406 0 L 2.203125 0 L 2.203125 -0.390625 L 1.816406 -0.390625 Z M 0 -2.269531 L 0.390625 -2.269531 L 0.390625 -2.660156 L 0 -2.660156 Z M 0.453125 -1.816406 L 0.84375 -1.816406 L 0.84375 -2.203125 L 0.453125 -2.203125 Z M 0.90625 -1.363281 L 1.296875 -1.363281 L 1.296875 -1.75 L 0.90625 -1.75 Z M 0 -2.722656 L 0.390625 -2.722656 L 0.390625 -3.113281 L 0 -3.113281 Z M 0.453125 -2.269531 L 0.84375 -2.269531 L 0.84375 -2.660156 L 0.453125 -2.660156 Z M 1.363281 -1.363281 L 1.75 -1.363281 L 1.75 -1.75 L 1.363281 -1.75 Z M 0.453125 -2.722656 L 0.84375 -2.722656 L 0.84375 -3.113281 L 0.453125 -3.113281 Z M 0.90625 -2.722656 L 1.296875 -2.722656 L 1.296875 -3.113281 L 0.90625 -3.113281 Z M 1.363281 -2.722656 L 1.75 -2.722656 L 1.75 -3.113281 L 1.363281 -3.113281 Z M 1.363281 -2.722656 "/></g></g></g><g fill="#b9f3fd" fill-opacity="1"><g transform="translate(125.422501, 24.987447)"><g/></g></g><g fill="#b9f3fd" fill-opacity="1"><g transform="translate(127.756184, 24.987447)"><g><path d="M 2.269531 -2.722656 L 2.660156 -2.722656 L 2.660156 -3.113281 L 2.269531 -3.113281 Z M 0.90625 0 L 1.296875 0 L 1.296875 -0.390625 L 0.90625 -0.390625 Z M 0.90625 -0.453125 L 1.296875 -0.453125 L 1.296875 -0.84375 L 0.90625 -0.84375 Z M 1.363281 0 L 1.75 0 L 1.75 -0.390625 L 1.363281 -0.390625 Z M 0.90625 -0.90625 L 1.296875 -0.90625 L 1.296875 -1.296875 L 0.90625 -1.296875 Z M 1.363281 -0.453125 L 1.75 -0.453125 L 1.75 -0.84375 L 1.363281 -0.84375 Z M 0.90625 -1.363281 L 1.296875 -1.363281 L 1.296875 -1.75 L 0.90625 -1.75 Z M 1.363281 -0.90625 L 1.75 -0.90625 L 1.75 -1.296875 L 1.363281 -1.296875 Z M 0 -2.722656 L 0.390625 -2.722656 L 0.390625 -3.113281 L 0 -3.113281 Z M 0.90625 -1.816406 L 1.296875 -1.816406 L 1.296875 -2.203125 L 0.90625 -2.203125 Z M 1.363281 -1.363281 L 1.75 -1.363281 L 1.75 -1.75 L 1.363281 -1.75 Z M 0.453125 -2.722656 L 0.84375 -2.722656 L 0.84375 -3.113281 L 0.453125 -3.113281 Z M 0.90625 -2.269531 L 1.296875 -2.269531 L 1.296875 -2.660156 L 0.90625 -2.660156 Z M 1.363281 -1.816406 L 1.75 -1.816406 L 1.75 -2.203125 L 1.363281 -2.203125 Z M 0.90625 -2.722656 L 1.296875 -2.722656 L 1.296875 -3.113281 L 0.90625 -3.113281 Z M 1.363281 -2.269531 L 1.75 -2.269531 L 1.75 -2.660156 L 1.363281 -2.660156 Z M 1.363281 -2.722656 L 1.75 -2.722656 L 1.75 -3.113281 L 1.363281 -3.113281 Z M 1.816406 -2.722656 L 2.203125 -2.722656 L 2.203125 -3.113281 L 1.816406 -3.113281 Z M 1.816406 -2.722656 "/></g></g></g><g fill="#b9f3fd" fill-opacity="1"><g transform="translate(131.645355, 24.987447)"><g><path d="M 2.269531 -2.269531 L 2.660156 -2.269531 L 2.660156 -2.660156 L 2.269531 -2.660156 Z M 0 0 L 0.390625 0 L 0.390625 -0.390625 L 0 -0.390625 Z M 0 -0.453125 L 0.390625 -0.453125 L 0.390625 -0.84375 L 0 -0.84375 Z M 0.453125 0 L 0.84375 0 L 0.84375 -0.390625 L 0.453125 -0.390625 Z M 0 -0.90625 L 0.390625 -0.90625 L 0.390625 -1.296875 L 0 -1.296875 Z M 0.453125 -0.453125 L 0.84375 -0.453125 L 0.84375 -0.84375 L 0.453125 -0.84375 Z M 0 -1.363281 L 0.390625 -1.363281 L 0.390625 -1.75 L 0 -1.75 Z M 0.453125 -0.90625 L 0.84375 -0.90625 L 0.84375 -1.296875 L 0.453125 -1.296875 Z M 0 -1.816406 L 0.390625 -1.816406 L 0.390625 -2.203125 L 0 -2.203125 Z M 0.453125 -1.363281 L 0.84375 -1.363281 L 0.84375 -1.75 L 0.453125 -1.75 Z M 1.816406 0 L 2.203125 0 L 2.203125 -0.390625 L 1.816406 -0.390625 Z M 0 -2.269531 L 0.390625 -2.269531 L 0.390625 -2.660156 L 0 -2.660156 Z M 0.453125 -1.816406 L 0.84375 -1.816406 L 0.84375 -2.203125 L 0.453125 -2.203125 Z M 0.90625 -1.363281 L 1.296875 -1.363281 L 1.296875 -1.75 L 0.90625 -1.75 Z M 1.816406 -0.453125 L 2.203125 -0.453125 L 2.203125 -0.84375 L 1.816406 -0.84375 Z M 2.269531 0 L 2.660156 0 L 2.660156 -0.390625 L 2.269531 -0.390625 Z M 0.453125 -2.269531 L 0.84375 -2.269531 L 0.84375 -2.660156 L 0.453125 -2.660156 Z M 1.363281 -1.363281 L 1.75 -1.363281 L 1.75 -1.75 L 1.363281 -1.75 Z M 1.816406 -0.90625 L 2.203125 -0.90625 L 2.203125 -1.296875 L 1.816406 -1.296875 Z M 2.269531 -0.453125 L 2.660156 -0.453125 L 2.660156 -0.84375 L 2.269531 -0.84375 Z M 0.453125 -2.722656 L 0.84375 -2.722656 L 0.84375 -3.113281 L 0.453125 -3.113281 Z M 1.816406 -1.363281 L 2.203125 -1.363281 L 2.203125 -1.75 L 1.816406 -1.75 Z M 2.269531 -0.90625 L 2.660156 -0.90625 L 2.660156 -1.296875 L 2.269531 -1.296875 Z M 0.90625 -2.722656 L 1.296875 -2.722656 L 1.296875 -3.113281 L 0.90625 -3.113281 Z M 1.816406 -1.816406 L 2.203125 -1.816406 L 2.203125 -2.203125 L 1.816406 -2.203125 Z M 2.269531 -1.363281 L 2.660156 -1.363281 L 2.660156 -1.75 L 2.269531 -1.75 Z M 1.363281 -2.722656 L 1.75 -2.722656 L 1.75 -3.113281 L 1.363281 -3.113281 Z M 1.816406 -2.269531 L 2.203125 -2.269531 L 2.203125 -2.660156 L 1.816406 -2.660156 Z M 2.269531 -1.816406 L 2.660156 -1.816406 L 2.660156 -2.203125 L 2.269531 -2.203125 Z M 1.816406 -2.722656 L 2.203125 -2.722656 L 2.203125 -3.113281 L 1.816406 -3.113281 Z M 1.816406 -2.722656 "/></g></g></g><g fill="#b9f3fd" fill-opacity="1"><g transform="translate(135.534528, 24.987447)"><g><path d="M 2.269531 -2.269531 L 2.660156 -2.269531 L 2.660156 -2.660156 L 2.269531 -2.660156 Z M 0 0 L 0.390625 0 L 0.390625 -0.390625 L 0 -0.390625 Z M 0 -0.453125 L 0.390625 -0.453125 L 0.390625 -0.84375 L 0 -0.84375 Z M 0.453125 0 L 0.84375 0 L 0.84375 -0.390625 L 0.453125 -0.390625 Z M 0 -0.90625 L 0.390625 -0.90625 L 0.390625 -1.296875 L 0 -1.296875 Z M 0.453125 -0.453125 L 0.84375 -0.453125 L 0.84375 -0.84375 L 0.453125 -0.84375 Z M 0 -1.363281 L 0.390625 -1.363281 L 0.390625 -1.75 L 0 -1.75 Z M 0.453125 -0.90625 L 0.84375 -0.90625 L 0.84375 -1.296875 L 0.453125 -1.296875 Z M 0 -1.816406 L 0.390625 -1.816406 L 0.390625 -2.203125 L 0 -2.203125 Z M 0.453125 -1.363281 L 0.84375 -1.363281 L 0.84375 -1.75 L 0.453125 -1.75 Z M 0 -2.269531 L 0.390625 -2.269531 L 0.390625 -2.660156 L 0 -2.660156 Z M 0.453125 -1.816406 L 0.84375 -1.816406 L 0.84375 -2.203125 L 0.453125 -2.203125 Z M 0.90625 -1.363281 L 1.296875 -1.363281 L 1.296875 -1.75 L 0.90625 -1.75 Z M 0 -2.722656 L 0.390625 -2.722656 L 0.390625 -3.113281 L 0 -3.113281 Z M 0.453125 -2.269531 L 0.84375 -2.269531 L 0.84375 -2.660156 L 0.453125 -2.660156 Z M 1.363281 -1.363281 L 1.75 -1.363281 L 1.75 -1.75 L 1.363281 -1.75 Z M 0.453125 -2.722656 L 0.84375 -2.722656 L 0.84375 -3.113281 L 0.453125 -3.113281 Z M 1.816406 -1.363281 L 2.203125 -1.363281 L 2.203125 -1.75 L 1.816406 -1.75 Z M 0.90625 -2.722656 L 1.296875 -2.722656 L 1.296875 -3.113281 L 0.90625 -3.113281 Z M 1.816406 -1.816406 L 2.203125 -1.816406 L 2.203125 -2.203125 L 1.816406 -2.203125 Z M 1.363281 -2.722656 L 1.75 -2.722656 L 1.75 -3.113281 L 1.363281 -3.113281 Z M 1.816406 -2.269531 L 2.203125 -2.269531 L 2.203125 -2.660156 L 1.816406 -2.660156 Z M 2.269531 -1.816406 L 2.660156 -1.816406 L 2.660156 -2.203125 L 2.269531 -2.203125 Z M 1.816406 -2.722656 L 2.203125 -2.722656 L 2.203125 -3.113281 L 1.816406 -3.113281 Z M 1.816406 -2.722656 "/></g></g></g><g fill="#b9f3fd" fill-opacity="1"><g transform="translate(139.423701, 24.987447)"><g><path d="M 1.363281 -2.722656 L 1.75 -2.722656 L 1.75 -3.113281 L 1.363281 -3.113281 Z M 0 0 L 0.390625 0 L 0.390625 -0.390625 L 0 -0.390625 Z M 0.453125 0 L 0.84375 0 L 0.84375 -0.390625 L 0.453125 -0.390625 Z M 0.453125 -0.453125 L 0.84375 -0.453125 L 0.84375 -0.84375 L 0.453125 -0.84375 Z M 0.90625 0 L 1.296875 0 L 1.296875 -0.390625 L 0.90625 -0.390625 Z M 0.453125 -0.90625 L 0.84375 -0.90625 L 0.84375 -1.296875 L 0.453125 -1.296875 Z M 0.90625 -0.453125 L 1.296875 -0.453125 L 1.296875 -0.84375 L 0.90625 -0.84375 Z M 1.363281 0 L 1.75 0 L 1.75 -0.390625 L 1.363281 -0.390625 Z M 0.453125 -1.363281 L 0.84375 -1.363281 L 0.84375 -1.75 L 0.453125 -1.75 Z M 0.90625 -0.90625 L 1.296875 -0.90625 L 1.296875 -1.296875 L 0.90625 -1.296875 Z M 0.453125 -1.816406 L 0.84375 -1.816406 L 0.84375 -2.203125 L 0.453125 -2.203125 Z M 0.90625 -1.363281 L 1.296875 -1.363281 L 1.296875 -1.75 L 0.90625 -1.75 Z M 0 -2.722656 L 0.390625 -2.722656 L 0.390625 -3.113281 L 0 -3.113281 Z M 0.453125 -2.269531 L 0.84375 -2.269531 L 0.84375 -2.660156 L 0.453125 -2.660156 Z M 0.90625 -1.816406 L 1.296875 -1.816406 L 1.296875 -2.203125 L 0.90625 -2.203125 Z M 0.453125 -2.722656 L 0.84375 -2.722656 L 0.84375 -3.113281 L 0.453125 -3.113281 Z M 0.90625 -2.269531 L 1.296875 -2.269531 L 1.296875 -2.660156 L 0.90625 -2.660156 Z M 0.90625 -2.722656 L 1.296875 -2.722656 L 1.296875 -3.113281 L 0.90625 -3.113281 Z M 0.90625 -2.722656 "/></g></g></g><g fill="#b9f3fd" fill-opacity="1"><g transform="translate(142.405505, 24.987447)"><g><path d="M 2.269531 -2.269531 L 2.660156 -2.269531 L 2.660156 -2.660156 L 2.269531 -2.660156 Z M 0 0 L 0.390625 0 L 0.390625 -0.390625 L 0 -0.390625 Z M 0 -0.453125 L 0.390625 -0.453125 L 0.390625 -0.84375 L 0 -0.84375 Z M 0.453125 0 L 0.84375 0 L 0.84375 -0.390625 L 0.453125 -0.390625 Z M 0 -0.90625 L 0.390625 -0.90625 L 0.390625 -1.296875 L 0 -1.296875 Z M 0.453125 -0.453125 L 0.84375 -0.453125 L 0.84375 -0.84375 L 0.453125 -0.84375 Z M 0 -1.363281 L 0.390625 -1.363281 L 0.390625 -1.75 L 0 -1.75 Z M 0.453125 -0.90625 L 0.84375 -0.90625 L 0.84375 -1.296875 L 0.453125 -1.296875 Z M 0 -1.816406 L 0.390625 -1.816406 L 0.390625 -2.203125 L 0 -2.203125 Z M 0.453125 -1.363281 L 0.84375 -1.363281 L 0.84375 -1.75 L 0.453125 -1.75 Z M 1.816406 0 L 2.203125 0 L 2.203125 -0.390625 L 1.816406 -0.390625 Z M 0 -2.269531 L 0.390625 -2.269531 L 0.390625 -2.660156 L 0 -2.660156 Z M 0.453125 -1.816406 L 0.84375 -1.816406 L 0.84375 -2.203125 L 0.453125 -2.203125 Z M 0.90625 -1.363281 L 1.296875 -1.363281 L 1.296875 -1.75 L 0.90625 -1.75 Z M 1.816406 -0.453125 L 2.203125 -0.453125 L 2.203125 -0.84375 L 1.816406 -0.84375 Z M 2.269531 0 L 2.660156 0 L 2.660156 -0.390625 L 2.269531 -0.390625 Z M 0.453125 -2.269531 L 0.84375 -2.269531 L 0.84375 -2.660156 L 0.453125 -2.660156 Z M 1.363281 -1.363281 L 1.75 -1.363281 L 1.75 -1.75 L 1.363281 -1.75 Z M 1.816406 -0.90625 L 2.203125 -0.90625 L 2.203125 -1.296875 L 1.816406 -1.296875 Z M 2.269531 -0.453125 L 2.660156 -0.453125 L 2.660156 -0.84375 L 2.269531 -0.84375 Z M 0.453125 -2.722656 L 0.84375 -2.722656 L 0.84375 -3.113281 L 0.453125 -3.113281 Z M 1.816406 -1.363281 L 2.203125 -1.363281 L 2.203125 -1.75 L 1.816406 -1.75 Z M 2.269531 -0.90625 L 2.660156 -0.90625 L 2.660156 -1.296875 L 2.269531 -1.296875 Z M 0.90625 -2.722656 L 1.296875 -2.722656 L 1.296875 -3.113281 L 0.90625 -3.113281 Z M 1.816406 -1.816406 L 2.203125 -1.816406 L 2.203125 -2.203125 L 1.816406 -2.203125 Z M 2.269531 -1.363281 L 2.660156 -1.363281 L 2.660156 -1.75 L 2.269531 -1.75 Z M 1.363281 -2.722656 L 1.75 -2.722656 L 1.75 -3.113281 L 1.363281 -3.113281 Z M 1.816406 -2.269531 L 2.203125 -2.269531 L 2.203125 -2.660156 L 1.816406 -2.660156 Z M 2.269531 -1.816406 L 2.660156 -1.816406 L 2.660156 -2.203125 L 2.269531 -2.203125 Z M 1.816406 -2.722656 L 2.203125 -2.722656 L 2.203125 -3.113281 L 1.816406 -3.113281 Z M 1.816406 -2.722656 "/></g></g></g><g fill="#d8bbff" fill-opacity="1"><g transform="translate(99.104766, 50.549531)"><g><path d="M 1.710938 -3.421875 L 2.199219 -3.421875 L 2.199219 -3.910156 L 1.710938 -3.910156 Z M 0 0 L 0.488281 0 L 0.488281 -0.488281 L 0 -0.488281 Z M 0.570312 0 L 1.058594 0 L 1.058594 -0.488281 L 0.570312 -0.488281 Z M 0.570312 -0.570312 L 1.058594 -0.570312 L 1.058594 -1.058594 L 0.570312 -1.058594 Z M 1.140625 0 L 1.628906 0 L 1.628906 -0.488281 L 1.140625 -0.488281 Z M 0.570312 -1.140625 L 1.058594 -1.140625 L 1.058594 -1.628906 L 0.570312 -1.628906 Z M 1.140625 -0.570312 L 1.628906 -0.570312 L 1.628906 -1.058594 L 1.140625 -1.058594 Z M 1.710938 0 L 2.199219 0 L 2.199219 -0.488281 L 1.710938 -0.488281 Z M 0.570312 -1.710938 L 1.058594 -1.710938 L 1.058594 -2.199219 L 0.570312 -2.199219 Z M 1.140625 -1.140625 L 1.628906 -1.140625 L 1.628906 -1.628906 L 1.140625 -1.628906 Z M 0.570312 -2.28125 L 1.058594 -2.28125 L 1.058594 -2.769531 L 0.570312 -2.769531 Z M 1.140625 -1.710938 L 1.628906 -1.710938 L 1.628906 -2.199219 L 1.140625 -2.199219 Z M 0 -3.421875 L 0.488281 -3.421875 L 0.488281 -3.910156 L 0 -3.910156 Z M 0.570312 -2.851562 L 1.058594 -2.851562 L 1.058594 -3.339844 L 0.570312 -3.339844 Z M 1.140625 -2.28125 L 1.628906 -2.28125 L 1.628906 -2.769531 L 1.140625 -2.769531 Z M 0.570312 -3.421875 L 1.058594 -3.421875 L 1.058594 -3.910156 L 0.570312 -3.910156 Z M 1.140625 -2.851562 L 1.628906 -2.851562 L 1.628906 -3.339844 L 1.140625 -3.339844 Z M 1.140625 -3.421875 L 1.628906 -3.421875 L 1.628906 -3.910156 L 1.140625 -3.910156 Z M 1.140625 -3.421875 "/></g></g></g><g fill="#d8bbff" fill-opacity="1"><g transform="translate(102.852292, 50.549531)"><g><path d="M 2.851562 -3.421875 L 3.339844 -3.421875 L 3.339844 -3.910156 L 2.851562 -3.910156 Z M 1.140625 0 L 1.628906 0 L 1.628906 -0.488281 L 1.140625 -0.488281 Z M 1.140625 -0.570312 L 1.628906 -0.570312 L 1.628906 -1.058594 L 1.140625 -1.058594 Z M 1.710938 0 L 2.199219 0 L 2.199219 -0.488281 L 1.710938 -0.488281 Z M 1.140625 -1.140625 L 1.628906 -1.140625 L 1.628906 -1.628906 L 1.140625 -1.628906 Z M 1.710938 -0.570312 L 2.199219 -0.570312 L 2.199219 -1.058594 L 1.710938 -1.058594 Z M 1.140625 -1.710938 L 1.628906 -1.710938 L 1.628906 -2.199219 L 1.140625 -2.199219 Z M 1.710938 -1.140625 L 2.199219 -1.140625 L 2.199219 -1.628906 L 1.710938 -1.628906 Z M 0 -3.421875 L 0.488281 -3.421875 L 0.488281 -3.910156 L 0 -3.910156 Z M 1.140625 -2.28125 L 1.628906 -2.28125 L 1.628906 -2.769531 L 1.140625 -2.769531 Z M 1.710938 -1.710938 L 2.199219 -1.710938 L 2.199219 -2.199219 L 1.710938 -2.199219 Z M 0.570312 -3.421875 L 1.058594 -3.421875 L 1.058594 -3.910156 L 0.570312 -3.910156 Z M 1.140625 -2.851562 L 1.628906 -2.851562 L 1.628906 -3.339844 L 1.140625 -3.339844 Z M 1.710938 -2.28125 L 2.199219 -2.28125 L 2.199219 -2.769531 L 1.710938 -2.769531 Z M 1.140625 -3.421875 L 1.628906 -3.421875 L 1.628906 -3.910156 L 1.140625 -3.910156 Z M 1.710938 -2.851562 L 2.199219 -2.851562 L 2.199219 -3.339844 L 1.710938 -3.339844 Z M 1.710938 -3.421875 L 2.199219 -3.421875 L 2.199219 -3.910156 L 1.710938 -3.910156 Z M 2.28125 -3.421875 L 2.769531 -3.421875 L 2.769531 -3.910156 L 2.28125 -3.910156 Z M 2.28125 -3.421875 "/></g></g></g><g fill="#d8bbff" fill-opacity="1"><g transform="translate(107.740197, 50.549531)"><g/></g></g><g fill="#d8bbff" fill-opacity="1"><g transform="translate(110.673165, 50.549531)"><g><path d="M 2.28125 -3.421875 L 2.769531 -3.421875 L 2.769531 -3.910156 L 2.28125 -3.910156 Z M 0 0 L 0.488281 0 L 0.488281 -0.488281 L 0 -0.488281 Z M 0 -0.570312 L 0.488281 -0.570312 L 0.488281 -1.058594 L 0 -1.058594 Z M 0.570312 0 L 1.058594 0 L 1.058594 -0.488281 L 0.570312 -0.488281 Z M 0 -1.140625 L 0.488281 -1.140625 L 0.488281 -1.628906 L 0 -1.628906 Z M 0.570312 -0.570312 L 1.058594 -0.570312 L 1.058594 -1.058594 L 0.570312 -1.058594 Z M 1.140625 0 L 1.628906 0 L 1.628906 -0.488281 L 1.140625 -0.488281 Z M 0 -1.710938 L 0.488281 -1.710938 L 0.488281 -2.199219 L 0 -2.199219 Z M 0.570312 -1.140625 L 1.058594 -1.140625 L 1.058594 -1.628906 L 0.570312 -1.628906 Z M 1.710938 0 L 2.199219 0 L 2.199219 -0.488281 L 1.710938 -0.488281 Z M 0 -2.28125 L 0.488281 -2.28125 L 0.488281 -2.769531 L 0 -2.769531 Z M 0.570312 -1.710938 L 1.058594 -1.710938 L 1.058594 -2.199219 L 0.570312 -2.199219 Z M 2.28125 0 L 2.769531 0 L 2.769531 -0.488281 L 2.28125 -0.488281 Z M 0 -2.851562 L 0.488281 -2.851562 L 0.488281 -3.339844 L 0 -3.339844 Z M 0.570312 -2.28125 L 1.058594 -2.28125 L 1.058594 -2.769531 L 0.570312 -2.769531 Z M 1.140625 -1.710938 L 1.628906 -1.710938 L 1.628906 -2.199219 L 1.140625 -2.199219 Z M 0 -3.421875 L 0.488281 -3.421875 L 0.488281 -3.910156 L 0 -3.910156 Z M 0.570312 -2.851562 L 1.058594 -2.851562 L 1.058594 -3.339844 L 0.570312 -3.339844 Z M 1.710938 -1.710938 L 2.199219 -1.710938 L 2.199219 -2.199219 L 1.710938 -2.199219 Z M 0.570312 -3.421875 L 1.058594 -3.421875 L 1.058594 -3.910156 L 0.570312 -3.910156 Z M 1.140625 -3.421875 L 1.628906 -3.421875 L 1.628906 -3.910156 L 1.140625 -3.910156 Z M 1.710938 -3.421875 L 2.199219 -3.421875 L 2.199219 -3.910156 L 1.710938 -3.910156 Z M 1.710938 -3.421875 "/></g></g></g><g fill="#d8bbff" fill-opacity="1"><g transform="translate(114.990881, 50.549531)"><g><path d="M 2.851562 -2.851562 L 3.339844 -2.851562 L 3.339844 -3.339844 L 2.851562 -3.339844 Z M 0 0 L 0.488281 0 L 0.488281 -0.488281 L 0 -0.488281 Z M 0 -0.570312 L 0.488281 -0.570312 L 0.488281 -1.058594 L 0 -1.058594 Z M 0.570312 0 L 1.058594 0 L 1.058594 -0.488281 L 0.570312 -0.488281 Z M 0 -1.140625 L 0.488281 -1.140625 L 0.488281 -1.628906 L 0 -1.628906 Z M 0.570312 -0.570312 L 1.058594 -0.570312 L 1.058594 -1.058594 L 0.570312 -1.058594 Z M 0 -1.710938 L 0.488281 -1.710938 L 0.488281 -2.199219 L 0 -2.199219 Z M 0.570312 -1.140625 L 1.058594 -1.140625 L 1.058594 -1.628906 L 0.570312 -1.628906 Z M 0 -2.28125 L 0.488281 -2.28125 L 0.488281 -2.769531 L 0 -2.769531 Z M 0.570312 -1.710938 L 1.058594 -1.710938 L 1.058594 -2.199219 L 0.570312 -2.199219 Z M 2.28125 0 L 2.769531 0 L 2.769531 -0.488281 L 2.28125 -0.488281 Z M 0 -2.851562 L 0.488281 -2.851562 L 0.488281 -3.339844 L 0 -3.339844 Z M 0.570312 -2.28125 L 1.058594 -2.28125 L 1.058594 -2.769531 L 0.570312 -2.769531 Z M 2.28125 -0.570312 L 2.769531 -0.570312 L 2.769531 -1.058594 L 2.28125 -1.058594 Z M 2.851562 0 L 3.339844 0 L 3.339844 -0.488281 L 2.851562 -0.488281 Z M 0.570312 -2.851562 L 1.058594 -2.851562 L 1.058594 -3.339844 L 0.570312 -3.339844 Z M 2.28125 -1.140625 L 2.769531 -1.140625 L 2.769531 -1.628906 L 2.28125 -1.628906 Z M 2.851562 -0.570312 L 3.339844 -0.570312 L 3.339844 -1.058594 L 2.851562 -1.058594 Z M 0.570312 -3.421875 L 1.058594 -3.421875 L 1.058594 -3.910156 L 0.570312 -3.910156 Z M 2.28125 -1.710938 L 2.769531 -1.710938 L 2.769531 -2.199219 L 2.28125 -2.199219 Z M 2.851562 -1.140625 L 3.339844 -1.140625 L 3.339844 -1.628906 L 2.851562 -1.628906 Z M 1.140625 -3.421875 L 1.628906 -3.421875 L 1.628906 -3.910156 L 1.140625 -3.910156 Z M 2.28125 -2.28125 L 2.769531 -2.28125 L 2.769531 -2.769531 L 2.28125 -2.769531 Z M 2.851562 -1.710938 L 3.339844 -1.710938 L 3.339844 -2.199219 L 2.851562 -2.199219 Z M 1.710938 -3.421875 L 2.199219 -3.421875 L 2.199219 -3.910156 L 1.710938 -3.910156 Z M 2.28125 -2.851562 L 2.769531 -2.851562 L 2.769531 -3.339844 L 2.28125 -3.339844 Z M 2.851562 -2.28125 L 3.339844 -2.28125 L 3.339844 -2.769531 L 2.851562 -2.769531 Z M 2.28125 -3.421875 L 2.769531 -3.421875 L 2.769531 -3.910156 L 2.28125 -3.910156 Z M 2.28125 -3.421875 "/></g></g></g><g fill="#d8bbff" fill-opacity="1"><g transform="translate(119.878786, 50.549531)"><g><path d="M 2.851562 -2.851562 L 3.339844 -2.851562 L 3.339844 -3.339844 L 2.851562 -3.339844 Z M 0 -0.570312 L 0.488281 -0.570312 L 0.488281 -1.058594 L 0 -1.058594 Z M 0.570312 0 L 1.058594 0 L 1.058594 -0.488281 L 0.570312 -0.488281 Z M 0 -1.140625 L 0.488281 -1.140625 L 0.488281 -1.628906 L 0 -1.628906 Z M 0.570312 -0.570312 L 1.058594 -0.570312 L 1.058594 -1.058594 L 0.570312 -1.058594 Z M 1.140625 0 L 1.628906 0 L 1.628906 -0.488281 L 1.140625 -0.488281 Z M 0 -1.710938 L 0.488281 -1.710938 L 0.488281 -2.199219 L 0 -2.199219 Z M 0.570312 -1.140625 L 1.058594 -1.140625 L 1.058594 -1.628906 L 0.570312 -1.628906 Z M 1.710938 0 L 2.199219 0 L 2.199219 -0.488281 L 1.710938 -0.488281 Z M 0 -2.28125 L 0.488281 -2.28125 L 0.488281 -2.769531 L 0 -2.769531 Z M 0.570312 -1.710938 L 1.058594 -1.710938 L 1.058594 -2.199219 L 0.570312 -2.199219 Z M 2.28125 0 L 2.769531 0 L 2.769531 -0.488281 L 2.28125 -0.488281 Z M 0 -2.851562 L 0.488281 -2.851562 L 0.488281 -3.339844 L 0 -3.339844 Z M 0.570312 -2.28125 L 1.058594 -2.28125 L 1.058594 -2.769531 L 0.570312 -2.769531 Z M 2.28125 -0.570312 L 2.769531 -0.570312 L 2.769531 -1.058594 L 2.28125 -1.058594 Z M 0.570312 -2.851562 L 1.058594 -2.851562 L 1.058594 -3.339844 L 0.570312 -3.339844 Z M 1.710938 -1.710938 L 2.199219 -1.710938 L 2.199219 -2.199219 L 1.710938 -2.199219 Z M 2.28125 -1.140625 L 2.769531 -1.140625 L 2.769531 -1.628906 L 2.28125 -1.628906 Z M 2.851562 -0.570312 L 3.339844 -0.570312 L 3.339844 -1.058594 L 2.851562 -1.058594 Z M 0.570312 -3.421875 L 1.058594 -3.421875 L 1.058594 -3.910156 L 0.570312 -3.910156 Z M 2.28125 -1.710938 L 2.769531 -1.710938 L 2.769531 -2.199219 L 2.28125 -2.199219 Z M 2.851562 -1.140625 L 3.339844 -1.140625 L 3.339844 -1.628906 L 2.851562 -1.628906 Z M 1.140625 -3.421875 L 1.628906 -3.421875 L 1.628906 -3.910156 L 1.140625 -3.910156 Z M 2.851562 -1.710938 L 3.339844 -1.710938 L 3.339844 -2.199219 L 2.851562 -2.199219 Z M 1.710938 -3.421875 L 2.199219 -3.421875 L 2.199219 -3.910156 L 1.710938 -3.910156 Z M 2.28125 -2.851562 L 2.769531 -2.851562 L 2.769531 -3.339844 L 2.28125 -3.339844 Z M 2.28125 -3.421875 L 2.769531 -3.421875 L 2.769531 -3.910156 L 2.28125 -3.910156 Z M 2.28125 -3.421875 "/></g></g></g><g fill="#d8bbff" fill-opacity="1"><g transform="translate(124.766691, 50.549531)"><g><path d="M 1.710938 -3.421875 L 2.199219 -3.421875 L 2.199219 -3.910156 L 1.710938 -3.910156 Z M 0 0 L 0.488281 0 L 0.488281 -0.488281 L 0 -0.488281 Z M 0.570312 0 L 1.058594 0 L 1.058594 -0.488281 L 0.570312 -0.488281 Z M 0.570312 -0.570312 L 1.058594 -0.570312 L 1.058594 -1.058594 L 0.570312 -1.058594 Z M 1.140625 0 L 1.628906 0 L 1.628906 -0.488281 L 1.140625 -0.488281 Z M 0.570312 -1.140625 L 1.058594 -1.140625 L 1.058594 -1.628906 L 0.570312 -1.628906 Z M 1.140625 -0.570312 L 1.628906 -0.570312 L 1.628906 -1.058594 L 1.140625 -1.058594 Z M 1.710938 0 L 2.199219 0 L 2.199219 -0.488281 L 1.710938 -0.488281 Z M 0.570312 -1.710938 L 1.058594 -1.710938 L 1.058594 -2.199219 L 0.570312 -2.199219 Z M 1.140625 -1.140625 L 1.628906 -1.140625 L 1.628906 -1.628906 L 1.140625 -1.628906 Z M 0.570312 -2.28125 L 1.058594 -2.28125 L 1.058594 -2.769531 L 0.570312 -2.769531 Z M 1.140625 -1.710938 L 1.628906 -1.710938 L 1.628906 -2.199219 L 1.140625 -2.199219 Z M 0 -3.421875 L 0.488281 -3.421875 L 0.488281 -3.910156 L 0 -3.910156 Z M 0.570312 -2.851562 L 1.058594 -2.851562 L 1.058594 -3.339844 L 0.570312 -3.339844 Z M 1.140625 -2.28125 L 1.628906 -2.28125 L 1.628906 -2.769531 L 1.140625 -2.769531 Z M 0.570312 -3.421875 L 1.058594 -3.421875 L 1.058594 -3.910156 L 0.570312 -3.910156 Z M 1.140625 -2.851562 L 1.628906 -2.851562 L 1.628906 -3.339844 L 1.140625 -3.339844 Z M 1.140625 -3.421875 L 1.628906 -3.421875 L 1.628906 -3.910156 L 1.140625 -3.910156 Z M 1.140625 -3.421875 "/></g></g></g><g fill="#d8bbff" fill-opacity="1"><g transform="translate(128.514218, 50.549531)"><g><path d="M 2.851562 -2.851562 L 3.339844 -2.851562 L 3.339844 -3.339844 L 2.851562 -3.339844 Z M 0 0 L 0.488281 0 L 0.488281 -0.488281 L 0 -0.488281 Z M 0 -0.570312 L 0.488281 -0.570312 L 0.488281 -1.058594 L 0 -1.058594 Z M 0.570312 0 L 1.058594 0 L 1.058594 -0.488281 L 0.570312 -0.488281 Z M 0 -1.140625 L 0.488281 -1.140625 L 0.488281 -1.628906 L 0 -1.628906 Z M 0.570312 -0.570312 L 1.058594 -0.570312 L 1.058594 -1.058594 L 0.570312 -1.058594 Z M 0 -1.710938 L 0.488281 -1.710938 L 0.488281 -2.199219 L 0 -2.199219 Z M 0.570312 -1.140625 L 1.058594 -1.140625 L 1.058594 -1.628906 L 0.570312 -1.628906 Z M 0 -2.28125 L 0.488281 -2.28125 L 0.488281 -2.769531 L 0 -2.769531 Z M 0.570312 -1.710938 L 1.058594 -1.710938 L 1.058594 -2.199219 L 0.570312 -2.199219 Z M 2.28125 0 L 2.769531 0 L 2.769531 -0.488281 L 2.28125 -0.488281 Z M 0 -2.851562 L 0.488281 -2.851562 L 0.488281 -3.339844 L 0 -3.339844 Z M 0.570312 -2.28125 L 1.058594 -2.28125 L 1.058594 -2.769531 L 0.570312 -2.769531 Z M 2.28125 -0.570312 L 2.769531 -0.570312 L 2.769531 -1.058594 L 2.28125 -1.058594 Z M 2.851562 0 L 3.339844 0 L 3.339844 -0.488281 L 2.851562 -0.488281 Z M 0.570312 -2.851562 L 1.058594 -2.851562 L 1.058594 -3.339844 L 0.570312 -3.339844 Z M 2.28125 -1.140625 L 2.769531 -1.140625 L 2.769531 -1.628906 L 2.28125 -1.628906 Z M 2.851562 -0.570312 L 3.339844 -0.570312 L 3.339844 -1.058594 L 2.851562 -1.058594 Z M 0.570312 -3.421875 L 1.058594 -3.421875 L 1.058594 -3.910156 L 0.570312 -3.910156 Z M 2.28125 -1.710938 L 2.769531 -1.710938 L 2.769531 -2.199219 L 2.28125 -2.199219 Z M 2.851562 -1.140625 L 3.339844 -1.140625 L 3.339844 -1.628906 L 2.851562 -1.628906 Z M 1.140625 -3.421875 L 1.628906 -3.421875 L 1.628906 -3.910156 L 1.140625 -3.910156 Z M 2.28125 -2.28125 L 2.769531 -2.28125 L 2.769531 -2.769531 L 2.28125 -2.769531 Z M 2.851562 -1.710938 L 3.339844 -1.710938 L 3.339844 -2.199219 L 2.851562 -2.199219 Z M 1.710938 -3.421875 L 2.199219 -3.421875 L 2.199219 -3.910156 L 1.710938 -3.910156 Z M 2.28125 -2.851562 L 2.769531 -2.851562 L 2.769531 -3.339844 L 2.28125 -3.339844 Z M 2.851562 -2.28125 L 3.339844 -2.28125 L 3.339844 -2.769531 L 2.851562 -2.769531 Z M 2.28125 -3.421875 L 2.769531 -3.421875 L 2.769531 -3.910156 L 2.28125 -3.910156 Z M 2.28125 -3.421875 "/></g></g></g><g fill="#d8bbff" fill-opacity="1"><g transform="translate(133.402121, 50.549531)"><g><path d="M 2.28125 -3.421875 L 2.769531 -3.421875 L 2.769531 -3.910156 L 2.28125 -3.910156 Z M 0 0 L 0.488281 0 L 0.488281 -0.488281 L 0 -0.488281 Z M 0 -0.570312 L 0.488281 -0.570312 L 0.488281 -1.058594 L 0 -1.058594 Z M 0.570312 0 L 1.058594 0 L 1.058594 -0.488281 L 0.570312 -0.488281 Z M 0 -1.140625 L 0.488281 -1.140625 L 0.488281 -1.628906 L 0 -1.628906 Z M 0.570312 -0.570312 L 1.058594 -0.570312 L 1.058594 -1.058594 L 0.570312 -1.058594 Z M 1.140625 0 L 1.628906 0 L 1.628906 -0.488281 L 1.140625 -0.488281 Z M 0 -1.710938 L 0.488281 -1.710938 L 0.488281 -2.199219 L 0 -2.199219 Z M 0.570312 -1.140625 L 1.058594 -1.140625 L 1.058594 -1.628906 L 0.570312 -1.628906 Z M 1.710938 0 L 2.199219 0 L 2.199219 -0.488281 L 1.710938 -0.488281 Z M 0 -2.28125 L 0.488281 -2.28125 L 0.488281 -2.769531 L 0 -2.769531 Z M 0.570312 -1.710938 L 1.058594 -1.710938 L 1.058594 -2.199219 L 0.570312 -2.199219 Z M 2.28125 0 L 2.769531 0 L 2.769531 -0.488281 L 2.28125 -0.488281 Z M 0 -2.851562 L 0.488281 -2.851562 L 0.488281 -3.339844 L 0 -3.339844 Z M 0.570312 -2.28125 L 1.058594 -2.28125 L 1.058594 -2.769531 L 0.570312 -2.769531 Z M 1.140625 -1.710938 L 1.628906 -1.710938 L 1.628906 -2.199219 L 1.140625 -2.199219 Z M 0 -3.421875 L 0.488281 -3.421875 L 0.488281 -3.910156 L 0 -3.910156 Z M 0.570312 -2.851562 L 1.058594 -2.851562 L 1.058594 -3.339844 L 0.570312 -3.339844 Z M 1.710938 -1.710938 L 2.199219 -1.710938 L 2.199219 -2.199219 L 1.710938 -2.199219 Z M 0.570312 -3.421875 L 1.058594 -3.421875 L 1.058594 -3.910156 L 0.570312 -3.910156 Z M 1.140625 -3.421875 L 1.628906 -3.421875 L 1.628906 -3.910156 L 1.140625 -3.910156 Z M 1.710938 -3.421875 L 2.199219 -3.421875 L 2.199219 -3.910156 L 1.710938 -3.910156 Z M 1.710938 -3.421875 "/></g></g></g><g fill="#d8bbff" fill-opacity="1"><g transform="translate(137.719837, 50.549531)"><g><path d="M 2.28125 -3.421875 L 2.769531 -3.421875 L 2.769531 -3.910156 L 2.28125 -3.910156 Z M 0 0 L 0.488281 0 L 0.488281 -0.488281 L 0 -0.488281 Z M 0 -0.570312 L 0.488281 -0.570312 L 0.488281 -1.058594 L 0 -1.058594 Z M 0.570312 0 L 1.058594 0 L 1.058594 -0.488281 L 0.570312 -0.488281 Z M 0 -1.140625 L 0.488281 -1.140625 L 0.488281 -1.628906 L 0 -1.628906 Z M 0.570312 -0.570312 L 1.058594 -0.570312 L 1.058594 -1.058594 L 0.570312 -1.058594 Z M 1.140625 0 L 1.628906 0 L 1.628906 -0.488281 L 1.140625 -0.488281 Z M 0 -1.710938 L 0.488281 -1.710938 L 0.488281 -2.199219 L 0 -2.199219 Z M 0.570312 -1.140625 L 1.058594 -1.140625 L 1.058594 -1.628906 L 0.570312 -1.628906 Z M 1.710938 0 L 2.199219 0 L 2.199219 -0.488281 L 1.710938 -0.488281 Z M 0 -2.28125 L 0.488281 -2.28125 L 0.488281 -2.769531 L 0 -2.769531 Z M 0.570312 -1.710938 L 1.058594 -1.710938 L 1.058594 -2.199219 L 0.570312 -2.199219 Z M 2.28125 0 L 2.769531 0 L 2.769531 -0.488281 L 2.28125 -0.488281 Z M 0 -2.851562 L 0.488281 -2.851562 L 0.488281 -3.339844 L 0 -3.339844 Z M 0.570312 -2.28125 L 1.058594 -2.28125 L 1.058594 -2.769531 L 0.570312 -2.769531 Z M 1.140625 -1.710938 L 1.628906 -1.710938 L 1.628906 -2.199219 L 1.140625 -2.199219 Z M 0 -3.421875 L 0.488281 -3.421875 L 0.488281 -3.910156 L 0 -3.910156 Z M 0.570312 -2.851562 L 1.058594 -2.851562 L 1.058594 -3.339844 L 0.570312 -3.339844 Z M 1.710938 -1.710938 L 2.199219 -1.710938 L 2.199219 -2.199219 L 1.710938 -2.199219 Z M 0.570312 -3.421875 L 1.058594 -3.421875 L 1.058594 -3.910156 L 0.570312 -3.910156 Z M 1.140625 -3.421875 L 1.628906 -3.421875 L 1.628906 -3.910156 L 1.140625 -3.910156 Z M 1.710938 -3.421875 L 2.199219 -3.421875 L 2.199219 -3.910156 L 1.710938 -3.910156 Z M 1.710938 -3.421875 "/></g></g></g><g fill="#d8bbff" fill-opacity="1"><g transform="translate(142.037553, 50.549531)"><g><path d="M 2.851562 -2.851562 L 3.339844 -2.851562 L 3.339844 -3.339844 L 2.851562 -3.339844 Z M 0 0 L 0.488281 0 L 0.488281 -0.488281 L 0 -0.488281 Z M 0 -0.570312 L 0.488281 -0.570312 L 0.488281 -1.058594 L 0 -1.058594 Z M 0.570312 0 L 1.058594 0 L 1.058594 -0.488281 L 0.570312 -0.488281 Z M 0 -1.140625 L 0.488281 -1.140625 L 0.488281 -1.628906 L 0 -1.628906 Z M 0.570312 -0.570312 L 1.058594 -0.570312 L 1.058594 -1.058594 L 0.570312 -1.058594 Z M 0 -1.710938 L 0.488281 -1.710938 L 0.488281 -2.199219 L 0 -2.199219 Z M 0.570312 -1.140625 L 1.058594 -1.140625 L 1.058594 -1.628906 L 0.570312 -1.628906 Z M 0 -2.28125 L 0.488281 -2.28125 L 0.488281 -2.769531 L 0 -2.769531 Z M 0.570312 -1.710938 L 1.058594 -1.710938 L 1.058594 -2.199219 L 0.570312 -2.199219 Z M 2.28125 0 L 2.769531 0 L 2.769531 -0.488281 L 2.28125 -0.488281 Z M 0 -2.851562 L 0.488281 -2.851562 L 0.488281 -3.339844 L 0 -3.339844 Z M 0.570312 -2.28125 L 1.058594 -2.28125 L 1.058594 -2.769531 L 0.570312 -2.769531 Z M 1.140625 -1.710938 L 1.628906 -1.710938 L 1.628906 -2.199219 L 1.140625 -2.199219 Z M 2.28125 -0.570312 L 2.769531 -0.570312 L 2.769531 -1.058594 L 2.28125 -1.058594 Z M 2.851562 0 L 3.339844 0 L 3.339844 -0.488281 L 2.851562 -0.488281 Z M 0 -3.421875 L 0.488281 -3.421875 L 0.488281 -3.910156 L 0 -3.910156 Z M 0.570312 -2.851562 L 1.058594 -2.851562 L 1.058594 -3.339844 L 0.570312 -3.339844 Z M 1.710938 -1.710938 L 2.199219 -1.710938 L 2.199219 -2.199219 L 1.710938 -2.199219 Z M 2.28125 -1.140625 L 2.769531 -1.140625 L 2.769531 -1.628906 L 2.28125 -1.628906 Z M 2.851562 -0.570312 L 3.339844 -0.570312 L 3.339844 -1.058594 L 2.851562 -1.058594 Z M 0.570312 -3.421875 L 1.058594 -3.421875 L 1.058594 -3.910156 L 0.570312 -3.910156 Z M 2.28125 -1.710938 L 2.769531 -1.710938 L 2.769531 -2.199219 L 2.28125 -2.199219 Z M 2.851562 -1.140625 L 3.339844 -1.140625 L 3.339844 -1.628906 L 2.851562 -1.628906 Z M 1.140625 -3.421875 L 1.628906 -3.421875 L 1.628906 -3.910156 L 1.140625 -3.910156 Z M 2.28125 -2.28125 L 2.769531 -2.28125 L 2.769531 -2.769531 L 2.28125 -2.769531 Z M 1.710938 -3.421875 L 2.199219 -3.421875 L 2.199219 -3.910156 L 1.710938 -3.910156 Z M 2.28125 -2.851562 L 2.769531 -2.851562 L 2.769531 -3.339844 L 2.28125 -3.339844 Z M 2.851562 -2.28125 L 3.339844 -2.28125 L 3.339844 -2.769531 L 2.851562 -2.769531 Z M 2.28125 -3.421875 L 2.769531 -3.421875 L 2.769531 -3.910156 L 2.28125 -3.910156 Z M 2.28125 -3.421875 "/></g></g></g></svg>